<?xml version="1.0" encoding="utf-8"?>
<!-- Generator: Adobe Illustrator 25.3.1, SVG Export Plug-In . SVG Version: 6.00 Build 0)  -->
<svg version="1.1" id="Capa_1" xmlns="http://www.w3.org/2000/svg" xmlns:xlink="http://www.w3.org/1999/xlink" x="0px" y="0px"
	 viewBox="0 0 40 40" style="enable-background:new 0 0 40 40;" xml:space="preserve">
<style type="text/css">
	.st0{fill:#bf0909;}
</style>
<g>
	<g>
		<path class="st0" d="M18.6,34.7L18.6,34.7c0-0.1,0-0.1,0-0.2c-0.3-0.3-0.7-0.2-0.9-0.1c0,0.1,0,0.1,0,0.2c0.1,0.5-0.1,0.9-0.5,1.1
			c0.2,0.3,0.6,0.5,0.9,0.5h0c0.4,0,0.6-0.2,0.8-0.4C18.8,35.7,18.5,35.4,18.6,34.7z"/>
		<path class="st0" d="M14.1,33.4c0.3-0.1,0.5-0.2,0.7-0.4c0.1-0.2,0.2-0.4,0.2-0.7c0-0.2-0.1-0.3-0.2-0.5c0,0,0.2,0.2,0.3,0.4
			c0,0.1,0.1,0.2,0.1,0.4c0,0,0.1,0,0.1,0.1h0c0.2,0.1,0.4,0.1,0.7,0.1c0.2,0,0.4-0.2,0.5-0.3c0,0,0,0,0,0h0
			c-0.1-0.2-0.2-0.4-0.2-0.6v0c0-0.1,0-0.3,0.1-0.6c-0.1,0-0.1,0-0.2,0c-0.5,0-1,0.2-1.5,0.3l0,0l0,0c-0.6,0.2-1.2,0.5-1.7,0.7
			c0,0.1,0,0.2,0,0.3c0.1,0.4,0.5,0.8,0.9,0.8l0.1,0C14,33.5,14.1,33.5,14.1,33.4L14.1,33.4z"/>
		<path class="st0" d="M21.6,33.2c-0.3,0-0.6,0.2-0.7,0.4c-0.1,0.2-0.2,0.4-0.2,0.6c0,0.1,0,0.4,0.1,0.7c-0.2-0.2-0.3-0.5-0.3-0.5
			c0-0.2-0.2-0.5,0.2-1c0.2-0.2,0.4-0.4,0.7-0.4c-0.1-0.4-0.5-0.7-0.9-0.7c0.1,0.5-0.1,1-0.5,1.3c-0.2,0.1-0.4,0.2-0.7,0.2
			c-0.3,0-0.5-0.1-0.8-0.2c0,0-0.3-0.2-0.4-0.7c-0.1,0.1-0.3,0.2-0.5,0.2c-0.1,0-0.3,0-0.4,0c-0.2,0-0.4-0.1-0.5-0.2
			c-0.2,0.2-0.4,0.3-0.7,0.4c-0.1,0-0.1,0-0.2,0c-0.2,0-0.5,0-0.7-0.2c0,0.1-0.1,0.2-0.1,0.2c-0.2,0.3-0.5,0.4-0.9,0.5
			c0,0.1,0,0.2,0,0.3c0,0.2,0.1,0.4,0.4,0.6c0.1,0.1,0.3,0.2,0.5,0.2c0,0,0,0,0,0l0,0c0,0,0,0,0,0c0,0,0.1,0,0.1,0c0,0,0.1,0,0.1,0
			c0.1,0,0.2-0.1,0.3-0.1c0,0,0,0,0,0c-0.1,0.1-0.2,0.1-0.3,0.1c0.1,0,0.2-0.1,0.3-0.1c0,0,0,0,0,0c0,0,0.1,0,0.1-0.1l0,0
			c0.1-0.1,0.1-0.1,0.2-0.2c0.2-0.2,0.2-0.5,0.1-0.7l0,0c0-0.1,0-0.1,0-0.1s0-0.1-0.1-0.2c0,0,0.1,0.1,0.2,0.3l0,0c0,0,0,0.1,0,0.1
			c0-0.1,0-0.1,0-0.1l0,0c0,0,0,0.1,0,0.2c0.1,0.2,0.2,0.5,0,0.8c-0.1,0.2-0.2,0.3-0.4,0.4c0,0.2,0.2,0.5,0.5,0.7
			c0.2,0.1,0.6,0.1,0.9-0.1l0,0c0.4-0.3,0.5-0.6,0.5-0.8c0-0.4-0.2-0.7-0.6-0.9v0c0.3,0,0.5,0.2,0.7,0.4c0.2-0.1,0.8-0.2,1.2,0.1
			c0.2-0.2,0.4-0.3,0.8-0.4c0.1,0,0.4,0,0.6,0.1c-0.1,0-0.3,0-0.3,0c-0.8,0-1,0.6-1,0.7c-0.1,0.5,0.1,0.8,0.2,0.9l0,0
			c0.2,0.2,0.6,0.3,0.9,0.2c0.4-0.1,0.7-0.4,0.8-0.8l0-0.1l0.1,0.1c0.2,0.2,0.5,0.2,0.8,0.1c0.6-0.1,0.9-0.7,0.8-1.2
			C22.5,33.5,22.1,33.2,21.6,33.2z"/>
		<path class="st0" d="M15.3,34.8L15.3,34.8C15.3,34.8,15.3,34.8,15.3,34.8C15.3,34.8,15.3,34.8,15.3,34.8z"/>
		<path class="st0" d="M18.4,33.1c0.1,0.1,0.2,0.1,0.3,0.2c0,0,0.5,0.2,1-0.1c0.3-0.2,0.5-0.6,0.3-1.1c0,0-0.1,0-0.1,0
			c-0.6-0.3-1.8-0.7-3.1-0.8h-0.1c0,0-0.1,0-0.1,0c-0.2,0.3-0.2,0.5-0.2,0.6v0c0,0.5,0.4,0.8,0.7,0.9c0.3,0.1,0.8,0,1.1-0.5l0,0l0,0
			c-0.1,0.2-0.1,0.3-0.2,0.4l0,0c0,0,0,0,0,0c0,0,0,0.1,0,0.1l0,0C18.2,33,18.3,33,18.4,33.1z"/>
		<path class="st0" d="M15.3,34.8C15.2,34.8,15.2,34.8,15.3,34.8C15.2,34.8,15.2,34.8,15.3,34.8z"/>
		<path class="st0" d="M27.7,27.6c-0.1-0.4-0.5-0.9-1.1-1.1c-0.4-0.3-0.9-0.3-1.2-0.2c-0.5,0-0.8,0.3-0.9,0.5
			c-0.1,0-0.1,0.1-0.2,0.2c-0.1,0.1-0.2,0.4-0.1,0.7c0,0.5,0.3,0.7,0.5,0.8c0.3,0.1,0.6,0,0.7,0l0.3-0.2l-0.2-0.3
			c0,0-0.1-0.2-0.1-0.3c0,0,0-0.1,0-0.1c0,0,0.1-0.1,0.1-0.1l0,0c0.1,0,0.3,0,0.4,0c0,0.1,0.1,0.3,0.2,0.4c-0.1,0.2-0.1,0.4-0.2,0.6
			c-0.2,0.1-0.3,0.3-0.4,0.4c-0.1,0-0.1,0-0.2,0.1c-0.1,0-0.2,0-0.5,0h0l0,0c-0.2,0-0.6-0.2-0.7-0.2l0,0c0,0-2.1-1.2-3.3-1.9l0,0
			c-0.4-0.2-1.4-0.7-2.8-0.7c-1,0-2,0.4-2.7,1.1l-0.2,0.2c-0.4,0.1-0.8,0.2-0.8,0.2l-0.2,0.1l-0.1,0.8c-0.4,0.2-0.7,0.3-0.7,0.3
			L13.3,29c0,0,0,0,0,0l0,0l0,0c0,0,0,0,0,0l-0.1,0.1l0,0l0,0.2c0,0.1,0,0.2,0,0.5l0.3-0.1l0.1,0l0.2-0.1l0,0l0.2-0.1
			c1.1-0.3,2.6-0.5,3.8-0.1c1,0.3,1.5,0.8,2,1.2c0.1,0.1,0.2,0.1,0.2,0.2l0,0l0,0c-0.5-0.3-1.4-0.9-2.3-1.1
			c-0.9-0.3-2.2-0.3-3.4,0.1c0,0-0.2,0.1-0.4,0.2c0,0,0,0,0,0c0,0,0,0,0,0c0,0-0.1,0-0.1,0c-0.3,0.1-0.7,0.3-0.9,0.4l0,0.2
			c0,0,0,0.7,0.2,1.3l0,0.1c0,0,0,0,0,0c0,0.1,0,0.1,0,0.1c0,0,0,0,0.1,0l0,0c0.3-0.1,1.3-0.6,2.1-0.8c0.4-0.1,0.7-0.2,1.1-0.2
			c0,0,0,0,0,0c0,0,0.1,0,0.1,0c0,0,0,0,0,0h0l0,0c0,0,0.1,0,0.1,0c0,0,0.1,0,0.1,0c0,0,0,0,0,0l0,0l0,0c0,0,0.1,0,0.1,0l0,0
			c0.1,0,0.1,0,0.1,0l0,0c0,0,0,0,0,0c0,0,0.1,0,0.1,0l0,0c0.1,0,0.2,0,0.3,0c0,0,0.1,0,0.1,0c1,0.1,1.9,0.4,2.4,0.6
			c0,0,0.1,0,0.1,0.1c0.1,0,0.2,0.1,0.2,0.1c0.1,0,0.1,0.1,0.1,0.1l0.2-0.3c0.7,0.3,2.8,1.1,3.8,1c0.2,0,0.4,0,0.6,0
			c0.4,0,0.8-0.1,1.2-0.2c1.1-0.2,1.7-1.3,1.8-1.7c0.4-0.4,0.4-1.2,0.3-1.8C28.1,28.4,28,28,27.7,27.6z M25.3,31
			c-0.1,0.6-0.3,0.9-0.3,0.9s0.1-0.5-0.1-1.4c-0.1-0.4-0.3-0.7-0.3-0.7l0.6,0.1C25.2,29.8,25.4,30.2,25.3,31z M27.1,29
			c-0.2-0.1-0.4-0.1-0.4-0.1s0-0.2,0-0.3c0.2,0,0.4,0.2,0.6,0.3c0.1,0.1,0.3,0.3,0.3,0.5C27.5,29.3,27.3,29.1,27.1,29z"/>
		<path class="st0" d="M13.4,4.8c0.3,0.5,0.6,0.8,1,0.9c0,0.1,0.1,0.1,0.1,0.2c-0.2,0-0.4,0-0.7,0.1c0.4,0.3,0.8,0.6,1.3,0.6
			c0.1,0,0.1,0.1,0.2,0.1c-0.2,0-0.3,0-0.5,0.1c0.5,0.4,1,0.6,1.4,0.5c0.1,0,0.2,0.1,0.3,0.1c-0.1,0-0.2,0.1-0.3,0.2
			c0.4,0.2,0.8,0.2,1.1,0.2C18,8,18.6,8.2,18.6,8.2s1.2,0.2,1.5,0.7c0.4-0.6,0.8-0.7,1-0.7c0.6-0.1,1.1-0.2,1.5-0.4
			c0.3,0,0.6,0,1-0.2c-0.1,0-0.1-0.1-0.2-0.1c0.1-0.1,0.2-0.1,0.3-0.2c0.5,0,0.9-0.2,1.4-0.5c-0.2,0-0.4-0.1-0.5-0.1
			c0,0,0.1-0.1,0.1-0.1c0.5,0,0.9-0.3,1.2-0.7c-0.2-0.1-0.4-0.1-0.6-0.1c0-0.1,0.1-0.1,0.1-0.2c0.4-0.1,0.8-0.4,1-0.9
			c-0.3,0-0.5,0.1-0.7,0.1c0-0.1,0-0.2,0-0.2c0.3-0.2,0.5-0.6,0.5-1c-0.2,0.1-0.3,0.2-0.5,0.2c0-0.1,0-0.3-0.1-0.4
			c0.1-0.2,0.1-0.6,0-0.9c-0.1,0.1-0.2,0.2-0.3,0.2c-0.1-0.1-0.1-0.2-0.2-0.3c0.1-0.3,0-0.6-0.3-1.1c-0.2,0.1-0.3,0.3-0.4,0.4
			c-0.1-0.1-0.2-0.2-0.3-0.2c0-0.3-0.3-0.7-0.9-1c0,0.2-0.1,0.3-0.1,0.5C23.1,1,23,1,22.8,0.9c-0.2-0.4-0.5-0.6-1-0.7
			c0,0.2,0,0.3,0.1,0.4c-0.1,0-0.3-0.1-0.4-0.1c-0.3-0.3-0.7-0.4-1.3-0.4c0,0.1,0.1,0.2,0.1,0.2c-0.2,0-0.3,0-0.5,0
			c-0.1,0-0.2,0-0.4,0c0-0.1,0.1-0.2,0.1-0.3c-0.6,0-1,0.1-1.3,0.4c-0.2,0-0.3,0.1-0.4,0.1c0-0.1,0-0.3,0-0.4
			c-0.5,0.2-0.9,0.4-1,0.7c-0.1,0-0.2,0.1-0.3,0.1c0-0.1,0-0.3,0-0.4c-0.5,0.3-0.8,0.6-0.9,0.9c-0.1,0.1-0.2,0.2-0.4,0.3
			c-0.1-0.1-0.2-0.2-0.3-0.3c-0.3,0.4-0.4,0.7-0.3,1c-0.1,0.1-0.1,0.2-0.2,0.3c-0.1-0.1-0.2-0.2-0.4-0.2c-0.1,0.4-0.1,0.7,0,0.9
			C14,3.5,14,3.7,14,3.8c-0.1,0-0.3-0.1-0.4-0.1C13.6,4,13.8,4.2,14,4.4c0,0.1,0,0.2,0.1,0.4C13.8,4.8,13.6,4.8,13.4,4.8z M19.8,2.5
			c1.8,0,3,1,3,1.8c0,0.6-0.7,1-1.9,1.3c-0.6,0.2-0.8,0.4-1,0.6c-0.1-0.1-0.4-0.4-0.9-0.5c-1.3-0.3-2.2-0.8-2.2-1.4
			C16.8,3.6,18.1,2.5,19.8,2.5z"/>
		<path class="st0" d="M36.6,4.3l-9,5.3l0,0l-0.4,0.2c0,0-1.3,0.7-2.8,0.9c-2.3,0.4-4-1.1-4-1.1L20,9.3l-0.4,0.4
			c-0.1,0.1-1.3,1.2-3.9,1.1c-1,0-2-0.5-2.6-0.8L3.4,4.4l0,7.7L0,10.2l0.1,17.8v0c0.1,1.7,0.2,3.1,0.6,4.6c0.5,1.7,1.4,3.2,2.7,4.5
			c0.9,0.9,1.9,1.6,3.1,2.1c1,0.4,2.1,0.7,3.2,0.7c0.3,0,0.6,0,0.9,0c1.8,0,3.5-0.3,4.8-0.6c0.6-0.1,1.2-0.2,1.7-0.3
			c1.6,0,2.2,0.7,2.6,0.8c0.1,0.1,0.2,0.1,0.3,0.1c0,0,0.1,0,0.1,0c0.1,0,0.2-0.1,0.3-0.1l0,0c0.4-0.3,0.7-0.5,1-0.6
			c1.3-0.5,2.5-0.2,4,0.1c0.3,0.1,0.5,0.1,0.8,0.2l0,0c1,0.2,2.2,0.3,3.4,0.3c0.7,0,1.3-0.1,2-0.2c1.9-0.4,3.6-1.3,5.2-2.9
			c1.3-1.4,2.1-2.7,2.6-4.1c0.4-1.3,0.5-2.6,0.6-4.1l0-0.3l0-18.2l-3.3,1.9V4.3z M35.5,9.9l0,2.9l-2.8,1.7l-1.1-1.1L31,12.8
			L35.5,9.9z M23.7,12c0.3,0,0.6,0,1-0.1c1.2-0.2,2.2-0.6,2.8-0.9l4.3,4.3c-0.6,0.7-1.6,2-2,3.7c-0.4,0.1-0.7,0.3-0.7,0.3l-0.3,0.2
			l0.2,0.3c0,0,0.2,0.3,0.6,0.4c0,0.2,0,0.5,0,0.7c0,1,0.2,2,0.4,2.9c-1-0.2-2.4-0.4-4.1-0.4c0,0-0.1,0-0.1,0v-2.3h0c0,0,0,0,0,0
			c0.1-0.4,0.5-0.4,0.6-0.5l0-0.3l0,0.3l-0.1-0.7c-0.1,0-0.3,0.1-0.5,0.2v-0.5c0.1-0.4,1-0.5,1-0.5l0-0.7c0,0-0.5,0-1,0.3v-0.8l0,0
			l0,0v0c0,0,0-0.1,0.1-0.1c0.3,0.1,0.9,0.1,1.5-0.4c0.5-0.4,0.6-1.1,0.6-1.1l0-0.3l-0.3,0c0,0-0.8-0.1-1.5,0.5
			c-0.3,0.2-0.5,0.5-0.7,0.7c-0.2-0.3-0.5-0.6-1-0.9c-0.5-0.3-1.1-0.3-1.1-0.3l-0.4,0l0.1,0.4c0,0,0.2,1.1,1.1,1.4
			c0.4,0.1,0.7,0.1,0.9,0c0,0.1,0,0.1,0,0.2v0.8c-0.4-0.2-0.9-0.3-1-0.3l0,0.7c0,0,0.3,0,0.5,0.1c0.3,0.1,0.4,0.2,0.5,0.4v0.5
			c-0.2-0.1-0.4-0.1-0.5-0.1l-0.1,0.7c0,0,0.5,0,0.6,0.5v2.3c-2.1,0-3.6,0.3-4.5,0.5v-3.6c0.1,0,0.2,0,0.4,0.1c0,0,0,0,0,0
			c0.5,0,1-0.4,1.1-0.4l0.3-0.2l-0.3-0.3c0,0-0.5-0.5-1.2-0.5c-0.1,0-0.2,0-0.3,0v-7.9C21.4,11.6,22.4,12,23.7,12z M15.7,12
			c0.1,0,0.2,0,0.3,0c1.5,0,2.6-0.4,3.3-0.8v12.9h0C19,24,18,23.8,16.7,23.7c0-0.4-0.1-1.4-0.1-1.4s0.1-0.8,0.1-0.9
			c0.2-0.6,0.3-1,0.3-1.1c0.1-0.1,0.5-0.3,0.6-0.5c0.2-0.2,0.3-0.3,0.3-0.7l0.1-1.2L18,14.8l1-0.1l0.2-0.3l0-0.3l-1.3-0.9
			c0,0-0.6,0.2-0.7,0.2c-0.3-0.1-0.7-0.2-1.2,0.2c0.1,0.2,0.2,0.4,0.4,0.5c0.3,0.2,0.7,0.1,0.7,0.1s0,0.1,0,0.2c0,1.4,0,2.9,0,2.9
			l-1.3,0.1l-3.4-0.2l-1.2,1.1l-0.2,0.4c-0.1,0.4-0.1,0.8,0,1.2l0.6-0.7l0.2,1.1L11.5,22l0.2,0.6c0,0,0.2,0.6,0.4,1.1
			c-1.1,0.1-1.8,0.3-2.2,0.4c0.3-1.1,0.4-1.8,0.4-1.9c0.1-0.3,0.4-2.8-0.3-4.6c-0.4-0.8-0.8-1.5-1.2-1.9c-0.1-0.2-0.2-0.4-0.3-0.5
			l0.3-0.3l3.8-3.8C13.2,11.4,14.4,12,15.7,12z M16.1,23.6c-0.1,0-0.1,0-0.2,0c0-0.6-0.1-1.9-0.1-1.9l0.1-0.2l0.1-0.7l0,0.8v0.3
			L16.1,23.6z M15.3,23.6c-0.2,0-0.4,0-0.6,0c-0.3,0-0.7,0-1,0c-0.2-0.5-0.3-0.9-0.4-1.4c0-0.1,0.1-0.8,0.1-0.8l0.6-1.1l0.5,0.2
			l0.5-0.1l0,1.4L15.3,23.6z M13.2,23.6C13.2,23.6,13.2,23.6,13.2,23.6c-0.2,0-0.3,0-0.5,0c-0.2-0.6-0.5-1.7-0.5-1.7l0.6-1.5
			l-0.1,1.7C12.7,22.2,13.1,23.1,13.2,23.6z M4.5,10l4.6,2.8l-1.6,1.6l-3-1.7L4.5,10z M7,29.8l-4.7-2.7c-0.5-0.4-1.1-1-1.1-2
			c0-0.2,0-0.3,0-0.4l0-5.7c0.8,0.4,6.3,3.5,7.6,4.5c-0.2,0.9-0.6,2.3-1.4,4.2C7.2,28.4,7.1,29.1,7,29.8z M30.4,34.6
			c-1.6,1.4-3.2,2.2-6.5,2.4c-2.1,0.1-3.3,0.8-3.9,1.5c-0.5-0.5-1.7-1.4-4-1.5c-2.3-0.1-3.8-0.7-4.7-1.2c-0.9-0.5-1.3-1.1-1.3-1.1
			l0,0l0,0c0,0-0.7-0.7-1.2-1.9c-0.7-1.5-0.7-3.1-0.1-4.6c0.4-1.1,0.7-2,1-2.8h20.8c0.5,1.5,1,2.6,1.1,2.8c0,0.1,0.4,1.1,0.5,2.4
			C32,32.3,31.5,33.7,30.4,34.6z M38.8,19l0,6.1c0,1.1-0.7,1.7-1.1,2l-0.2,0.1c-0.1,0-0.2,0.1-0.2,0.1l0,0l-4.2,2.4
			c-0.2-1.2-0.5-2-0.5-2l0,0c0,0-0.9-2-1.4-4.2L38.8,19z"/>
		<path class="st0" d="M21.1,17.6l-0.3,0.1l0.1,0.3c0,0,0.3,0.8,1.2,1c0.2,0,0.3,0.1,0.5,0.1c0.6,0,1.1-0.2,1.1-0.2l0.3-0.2
			l-0.2-0.4c-0.2-0.2-0.4-0.7-1.2-0.9C22,17.2,21.2,17.5,21.1,17.6z"/>
		<path class="st0" d="M28.3,17.5c-0.6,0.2-1.1,0.8-1.1,0.9l-0.2,0.3l0.3,0.2c0,0,0.4,0.2,1,0.2c0.2,0,0.4,0,0.5-0.1
			c0.7-0.2,1-0.9,1-0.9l0.1-0.3l-0.3-0.2C29.4,17.6,29,17.4,28.3,17.5z"/>
		<path class="st0" d="M25.4,16.8l0.2-0.2c0,0,0.6-0.5,0.6-1.4c0-0.8-0.5-1.3-0.6-1.3l-0.2-0.2L25.2,14c0,0,0,0,0,0
			c-0.2,0.2-0.5,0.5-0.5,1.2c0,0.7,0.5,1.3,0.5,1.3L25.4,16.8z"/>
		<path class="st0" d="M28.3,17.1c0,0,0.2,0,0.4,0c0.2,0,0.5,0,0.8-0.2c0.5-0.3,0.6-0.8,0.6-0.9l0.1-0.3l-0.4-0.1
			c-0.2,0-0.5-0.1-1,0.2c-0.1,0-0.4,0.2-0.6,0.8L28,17L28.3,17.1z"/>
		<path class="st0" d="M21.5,16.9C21.7,17,21.9,17,22,17c0.3,0,0.5-0.1,0.6-0.1l0.3-0.1l-0.2-0.3c-0.1-0.2-0.2-0.5-0.7-0.7
			c-0.1,0-0.4-0.2-1-0.1l-0.4,0.1l0.1,0.4C20.8,16.2,21,16.7,21.5,16.9z"/>
		<path class="st0" d="M26.9,15.8c0.1,0,0.4,0,0.7-0.3c0.3-0.3,0.3-0.7,0.3-0.7l0-0.3l-0.4,0c-0.1,0-0.4,0-0.7,0.3
			c-0.2,0.2-0.3,0.6-0.3,0.7l-0.1,0.4L26.9,15.8C26.9,15.8,26.9,15.8,26.9,15.8z"/>
		<path class="st0" d="M23.9,15.7l0.3,0l0.1-0.3c0-0.1,0-0.4-0.1-0.7c-0.2-0.2-0.5-0.4-0.5-0.4l-0.4-0.1l-0.1,0.4
			c0,0-0.1,0.4,0.1,0.7C23.5,15.6,23.9,15.7,23.9,15.7z"/>
		<path class="st0" d="M22.7,20.1c-0.5,0.3-0.7,0.9-0.7,1L22,21.4l0.3,0.1c0.1,0,0.2,0,0.4,0c0.2,0,0.5,0,0.8-0.2
			c0.5-0.3,0.7-0.9,0.7-1l0.1-0.3L24,19.9C24,19.9,23.3,19.7,22.7,20.1z"/>
		<path class="st0" d="M26.8,20l-0.3,0.2l0.2,0.3c0,0.1,0.4,0.6,0.9,0.7c0.1,0,0.2,0,0.4,0c0.4,0,0.8-0.1,0.8-0.2l0.3-0.1L29,20.6
			c0,0-0.3-0.6-1-0.8C27.4,19.6,26.9,20,26.8,20z"/>
	</g>
</g>
</svg>
