<svg xmlns="http://www.w3.org/2000/svg" xmlns:xlink="http://www.w3.org/1999/xlink" fill="none" viewBox="0 0 1280 29"><g fill="#555869" clip-path="url(#a)"><path d="M11.5 3.2v22.7h6.1V3.2h-6.1zm4 20.6h-2V5.3h2v18.5z"/><path d="M3.8 11.4v6.3H25v-6.3H3.8zM23 15.6H6v-2h17v2z"/><path d="M7.7 7.7v13.8h13.5V7.7H7.7zm11.5 11.7H9.9V9.8h9.3v9.6zm85.6-8.8V18h-3.3v3h-3v3.4H91v-3.3h-3v-3h-3.3v-7.7H88v-3h3V4.2h7.5v3.3h3v3h3.3zm-1.7 5.8v-4h-3.4V9.2h-3V5.9h-4v3.4h-3v3h-3.2v4h3.3v3h3v3.5h4v-3.4h3v-3h3.2zm-8.3-.1a2 2 0 0 0 0-4 2 2 0 0 0 0 4z"/><path d="M97 14.3c0 .4 0 .9-.3 1.3a2.3 2.3 0 0 1-1 .8A2.3 2.3 0 0 1 93 16a2.3 2.3 0 0 1-.6-1.2 2.3 2.3 0 0 1 .1-1.3c.2-.4.5-.8.9-1a2.3 2.3 0 0 1 1.3-.4 2.3 2.3 0 0 1 1.6.7c.4.4.6 1 .6 1.6zm-3.9 0a1.6 1.6 0 0 0 .3.9 1.6 1.6 0 0 0 .7.6 1.6 1.6 0 0 0 1 .1c.3 0 .6-.2.8-.4l.4-.9a1.6 1.6 0 0 0 0-1 1.6 1.6 0 0 0-.6-.7 1.6 1.6 0 0 0-2.1.2 1.6 1.6 0 0 0-.5 1.2z"/><use xlink:href="#b"/><use xlink:href="#c"/><path d="M84.8 6.4c.6 0 1-.5 1-1.1s-.4-1.2-1-1.2-1.2.5-1.2 1.2.5 1 1.2 1zm0 18.5a1.1 1.1 0 1 0 0-2.3 1.1 1.1 0 0 0 0 2.3zm-56 4.1H0V0h28.9v29zM2.3 26.7h24.4V2.3H2.2v24.4zM72.1 7.2h-8.8v-4h8.8v4zm-7.2-1.6h5.6v-.8H65v.8z"/><use xlink:href="#d"/><path d="M72.1 26.1h-8.8v-3.9h8.8v4zm-7.2-1.5h5.6v-.8H65v.8z"/><path d="M71.3 23h-3.6v2.3h3.6V23z"/><path d="M72.1 23.8h-8.8v-2.4h-2.1v-2.2h-2.4v-8.8h2.4V8.2h2.1V5.8h8.8v2.4h2.2v2.2h2.3v8.9h-2.3v2H72v2.5zM65 22.2h5.7v-2.4h2.1v-2.2H75V12h-2.3V9.8h-2.2V7.4H65v2.4h-2.1v2.1h-2.4v5.7h2.4v2.2h2v2.4z"/><path d="M79.2 19.2h-4v-8.8h4v8.8zm-2.3-1.6h.7V12H77v5.7z"/><path d="M78.4 18.4v-3.6H76v3.6h2.3z"/><use xlink:href="#e"/><path d="M57.2 11.2v3.6h2.3v-3.6h-2.3zm10.6 9-4.8-5 4.8-4.8 4.8 4.8-4.8 4.8zm-2.6-4.9 2.6 2.6 2.5-2.6-2.5-2.5-2.6 2.5z"/><path d="M67.8 15.3v4.4l4.3-4.4h-4.3z"/><use xlink:href="#f"/><path d="M82.2 29H53.3V0h29v29zm-26.6-2.3H80V2.3H55.6v24.4z"/><use xlink:href="#g"/><path d="M34.5 23.3c0-.6-.5-1-1.1-1s-1.1.4-1.1 1 .5 1.1 1 1.1 1.2-.5 1.2-1zm15.8 0c0-.6-.5-1-1-1s-1.2.4-1.2 1 .5 1.1 1.1 1.1 1.1-.5 1.1-1zm-.7-16c0-.5-.5-1-1.1-1s-1.1.4-1.1 1 .5 1.1 1 1.1 1.2-.4 1.2-1zM41.5 14l-1.1 1 1 1.1 1.1-1-1-1.1z"/><path d="m41.5 16.8-1.8-1.7 1.8-1.8 1.7 1.8-1.7 1.7zM41 15l.4.4.3-.4-.3-.3-.4.3zm2.8-10-1.4 3.7-.8 2.3h3.6v3l2.2-.7 2.9-1v5.1l-2.7-1.2-2.4-1v3.7h-3.5l1 2.4 1 2.8H39l1.1-2.8 1-2.4h-3.5v-3.2l-2.3.8-3.4 1v-5l3.3 1.2 2.4 1V11h3.1L40 8.8 38.8 5h5zm2.5-1.8h-9.9l1.8 6h-2.5v2.9L30 9.9v10l5.6-1.8v2.6h2.7l-2 5.2h10l-.5-1.2-1.6-4H47v-2.9l5.1 2.3V10l-5 1.7V9.3h-3l1.8-5 .5-1.1zM55.6 29H26.7V0h28.9v29zM29 26.7h24.4V2.3H29v24.4zm79.7 2.3H79.8V0h29v29zm-26.6-2.3h24.4V2.3H82v24.4z"/><use xlink:href="#h"/><path d="M110.3 11.4v6.3h21.3v-6.3h-21.3zm19.2 4.2h-17.1v-2h17.1v2z"/><path d="M114.2 7.7v13.8h13.5V7.7h-13.5zm11.4 11.7h-9.3V9.8h9.4v9.6zm85.7-8.8V18H208v3h-3v3.4h-7.5v-3.3h-3v-3h-3.3v-7.7h3.3v-3h3V4.2h7.4v3.3h3v3h3.4zm-1.8 5.8v-4h-3.3V9.2h-3V5.9h-4v3.4h-3v3H193v4h3.4v3h3v3.5h3.9v-3.4h3v-3h3.3z"/><use xlink:href="#i"/><path d="M203.5 14.3a2.3 2.3 0 0 1-.4 1.3 2.3 2.3 0 0 1-1 .8 2.3 2.3 0 0 1-2.5-.5 2.3 2.3 0 0 1-.5-2.5 2.3 2.3 0 0 1 .9-1 2.3 2.3 0 0 1 1.2-.4 2.3 2.3 0 0 1 1.7.7 2.3 2.3 0 0 1 .6 1.6zm-4 0a1.7 1.7 0 0 0 .2.6 1.6 1.6 0 0 0 .3.6 1.6 1.6 0 0 0 .6.4 1.6 1.6 0 0 0 .6.2c.2 0 .5 0 .7-.2a1.6 1.6 0 0 0 .5-.4 1.7 1.7 0 0 0 .4-.6v-.6c0-.4-.2-.8-.5-1.1a1.6 1.6 0 0 0-2.2 0c-.3.3-.5.7-.5 1zm10.4 11a1.1 1.1 0 1 0 0-2.3 1.1 1.1 0 0 0 0 2.3z"/><use xlink:href="#j"/><path d="M191.2 6.4a1.1 1.1 0 1 0 0-2.3 1.1 1.1 0 0 0 0 2.3z"/><use xlink:href="#k"/><path d="M135.3 29h-28.8V0h28.8v29zm-26.6-2.3h24.4V2.3h-24.4v24.4zm69.9-19.5h-8.8v-4h8.8v4zm-7.2-1.6h5.6v-.8h-5.6v.8z"/><path d="M170.6 6.4h3.6V4h-3.6v2.3zm8 19.7h-8.8v-3.9h8.8v4zm-7.2-1.5h5.6v-.8h-5.6v.8z"/><use xlink:href="#l"/><path d="M178.6 23.8h-8.8v-2.4h-2.1v-2.2h-2.4v-8.8h2.4V8.2h2.1V5.8h8.8v2.4h2.2v2.2h2.3v8.9h-2.3v2h-2.2v2.5zm-7.2-1.6h5.6v-2.4h2.2v-2.2h2.3V12h-2.3V9.8H177V7.4h-5.6v2.4h-2.2v2.1H167v5.7h2.3v2.2h2.2v2.4z"/><path d="M185.6 19.2h-3.8v-8.8h3.8v8.8zm-2.3-1.6h.8V12h-.7v5.7z"/><path d="M184.9 18.4v-3.6h-2.3v3.6h2.3zm-18.2.8H163v-8.8h3.8v8.8zm-2.3-1.6h.8V12h-.8v5.7z"/><path d="M163.7 11.2v3.6h2.3v-3.6h-2.3zm10.6 9-4.8-4.9 4.8-4.8 4.8 4.8-4.8 4.8zm-2.6-4.9 2.6 2.6 2.5-2.6-2.5-2.5-2.6 2.5z"/><path d="M174.3 15.3v4.4l4.3-4.4h-4.3z"/><path d="M174.3 15.3V11l-4.3 4.5h4.3zM188.7 29h-28.9V0h28.9v29zM162 26.7h24.3V2.3H162v24.4z"/><use xlink:href="#m"/><use xlink:href="#n"/><path d="M156.8 23.3c0-.6-.5-1-1.1-1.1s-1 .5-1.1 1 .5 1.2 1 1.2 1.2-.5 1.2-1z"/><use xlink:href="#o"/><path d="m148 14-1.1 1 1 1.1 1.1-1-1-1.1z"/><use xlink:href="#p"/><path d="M150.3 5 149 8.7l-.8 2.3h3.6v3l2.3-.7 2.8-1v5.1l-2.7-1.2-2.4-1v3.7h-3.5l.9 2.4 1.1 2.8h-5l1.2-2.8 1-2.4h-3.6v-3.2l-2.2.8-3.4 1v-5l3.3 1.2 2.3 1V11h3.2l-.7-2.2-1.1-3.8h5zm2.6-1.8h-10l1.9 6h-2.6v2.9l-5.6-2.2v10l5.6-1.8v2.6h2.7l-2 5.2h10l-.5-1.2-1.6-4h2.7v-2.9l5.1 2.3V10l-5.1 1.7V9.3h-2.9l1.8-5 .5-1.1zM162 29h-28.9V0H162v29zm-26.6-2.3h24.3V2.3h-24.3v24.4zm79.7 2.3h-28.9V0h28.9v29zm-26.6-2.3h24.3V2.3h-24.3v24.4zm35.9-23.5v22.7h6V3.2h-6zm4 20.6h-2V5.3h2v18.5z"/><path d="M216.7 11.4v6.3h21.4v-6.3h-21.4zm19.3 4.2h-17.2v-2H236v2z"/><path d="M220.7 7.7v13.8h13.5V7.7h-13.5zm11.4 11.7h-9.3V9.8h9.3v9.6zm85.7-8.8V18h-3.3v3h-3v3.4H304v-3.3h-3v-3h-3.3v-7.7h3.3v-3h3V4.2h7.4v3.3h3v3h3.4zm-1.8 5.8v-4h-3.3V9.2h-3V5.9h-4v3.4h-3v3h-3.4v4h3.4v3h3v3.5h3.9v-3.4h3v-3h3.4zm-8.3-.1c1.1 0 2-1 2-2s-.9-2-2-2-2 .9-2 2 1 2 2 2z"/><use xlink:href="#q"/><use xlink:href="#r"/><path d="M317 6c.5 0 1-.5 1-1s-.5-1.2-1-1.2-1.2.5-1.2 1.1.5 1.1 1.1 1.1zm-19.3.4a1.1 1.1 0 1 0 0-2.3 1.1 1.1 0 0 0 0 2.3zm0 18.5c.7 0 1.2-.5 1.2-1.1s-.5-1.2-1.1-1.2-1.2.5-1.2 1.2.5 1 1.2 1zM241.9 29H213V0h28.9v29zm-26.6-2.3h24.3V2.3h-24.3v24.4zm69.9-19.5h-8.8v-4h8.8v4zm-7.3-1.6h5.7v-.8h-5.7v.8z"/><path d="M277 6.4h3.7V4H277v2.3zm8 19.7h-8.7v-3.9h8.8v4zm-7.2-1.5h5.7v-.8h-5.7v.8z"/><path d="M284.3 23h-3.6v2.3h3.6V23z"/><path d="M285 23.8h-8.7v-2.4H274v-2.2h-2.3v-8.8h2.3V8.2h2.2V5.8h8.8v2.4h2.1v2.2h2.4v8.9h-2.4v2H285v2.5zm-7.2-1.6h5.7v-2.4h2.2v-2.2h2.3V12h-2.3V9.8h-2.2V7.4h-5.7v2.4h-2v2.1h-2.5v5.7h2.4v2.2h2.1v2.4z"/><path d="M292.1 19.2h-3.8v-8.8h3.8v8.8zm-2.3-1.6h.7V12h-.7v5.7z"/><use xlink:href="#s"/><path d="M273.2 19.2h-3.8v-8.8h3.8v8.8zm-2.3-1.6h.8V12h-.8v5.7z"/><path d="M270.1 11.1v3.7h2.3V11h-2.3zm10.6 9-4.7-4.8 4.8-4.8 4.8 4.8-4.9 4.8zm-2.5-4.8 2.5 2.6 2.6-2.6-2.6-2.5-2.5 2.5z"/><path d="M280.7 15.3v4.4l4.4-4.4h-4.4z"/><path d="M280.8 15.3V11l-4.3 4.5h4.3zM295.2 29h-28.9V0h28.9v29zm-26.6-2.3h24.3V2.3h-24.4v24.4zM248.4 7a1.1 1.1 0 0 0-1.1-1.1c-.6 0-1.1.5-1.1 1a1.1 1.1 0 0 0 1 1.2c.7 0 1.2-.5 1.2-1.1z"/><use xlink:href="#t"/><path d="M263.1 23.3a1.1 1.1 0 1 0-2.1 0 1.1 1.1 0 0 0 2.1 0zm-.7-16a1.1 1.1 0 1 0-1.1 1.1 1.1 1.1 0 0 0 1.1-1zm-8 6.7-1 1 1 1.1 1-1-1-1.1z"/><path d="m254.4 16.8-1.8-1.8 1.8-1.8 1.8 1.8-1.8 1.8zm-.3-1.8.3.4.4-.4-.4-.3-.3.3zm2.7-10-1.3 3.7-.9 2.3h3.7v3l2.2-.7 2.9-1v5.1l-2.7-1.2-2.4-1v3.7h-3.5l.9 2.4 1.1 2.8h-5l1.2-2.8 1-2.4h-3.6v-3.2l-2.3.8-3.3 1v-5l3.2 1.2 2.4 1V11h3.2l-.7-2.2-1.2-3.8h5.1zm2.6-1.8h-10l1.8 6h-2.5v2.9L243 9.9v10l5.7-1.8v2.6h2.7l-2.1 5.2h10l-.4-1.2-1.6-4h2.7v-2.9l5 2.3V10l-5 1.7V9.3h-3l1.9-5 .5-1.1z"/><use xlink:href="#u"/><use xlink:href="#v"/><path d="M331 3.2v22.7h6V3.2h-6zm4 20.6h-2V5.3h2v18.5z"/><path d="M323.2 11.4v6.3h21.3v-6.3h-21.3zm19.2 4.2h-17.1v-2h17.1v2z"/><path d="M327.2 7.7v13.8h13.5V7.7h-13.5zm11.4 11.7h-9.4V9.8h9.4v9.6zm85.7-8.8V18h-3.4v3h-3v3.4h-7.4v-3.3h-3v-3h-3.3v-7.7h3.3v-3h3V4.2h7.5v3.3h3v3h3.3zm-1.8 5.8v-4h-3.3V9.2h-3V5.9h-4v3.4h-3v3h-3.4v4h3.4v3h3v3.5h3.9v-3.4h3v-3h3.4zm-8.3-.1c1 0 2-1 2-2s-1-2-2-2-2 .9-2 2 1 2 2 2z"/><path d="M416.5 14.3c0 .4-.2.9-.4 1.3s-.6.6-1 .8a2.3 2.3 0 0 1-1.4.1 2.3 2.3 0 0 1-1.1-.6c-.4-.3-.6-.7-.7-1.2a2.3 2.3 0 0 1 .2-1.3 2.3 2.3 0 0 1 .8-1 2.3 2.3 0 0 1 3 .3c.3.4.6 1 .6 1.6zm-4 0 .3.9.7.6a1.6 1.6 0 0 0 1.8-.3 1.6 1.6 0 0 0 .5-.9l-.1-1a1.6 1.6 0 0 0-.6-.7 1.6 1.6 0 0 0-1-.3 1.6 1.6 0 0 0-1 .5 1.6 1.6 0 0 0-.5 1.2zm10.4 11a1.1 1.1 0 1 0 0-2.3 1.1 1.1 0 0 0 0 2.3zm.5-19.3a1.1 1.1 0 1 0 0-2.2 1.1 1.1 0 0 0 0 2.2zm-19.2.4a1.1 1.1 0 1 0 0-2.3 1.1 1.1 0 0 0 0 2.3zm0 18.5c.7 0 1.2-.5 1.2-1.1s-.5-1.2-1.2-1.2-1 .5-1 1.2.4 1 1 1z"/><use xlink:href="#w"/><path d="M391.5 7.2h-8.8v-4h8.8v4zm-7.2-1.6h5.7v-.8h-5.7v.8z"/><path d="M383.5 6.4h3.6V4h-3.6v2.3zm8 19.7h-8.8v-3.9h8.8v4zm-7.2-1.5h5.7v-.8h-5.7v.8z"/><path d="M390.8 23H387v2.3h3.7V23z"/><path d="M391.6 23.8h-8.8v-2.4h-2.2v-2.2h-2.4v-8.8h2.4V8.2h2.2V5.8h8.8v2.4h2.1v2.2h2.3v8.9h-2.3v2h-2.1v2.5zm-7.3-1.6h5.7v-2.4h2.1v-2.2h2.4V12H392V9.8h-2V7.4h-5.7v2.4h-2.1v2.1h-2.4v5.7h2.4v2.2h2.1v2.4z"/><path d="M398.6 19.2h-3.9v-8.8h3.9v8.8zm-2.3-1.6h.7V12h-.7v5.7z"/><path d="M397.8 18.4v-3.6h-2.3v3.6h2.3z"/><use xlink:href="#x"/><path d="M376.6 11.1v3.7h2.3V11h-2.3zm10.6 9-4.7-4.8 4.7-4.8 4.8 4.8-4.8 4.8zm-2.5-4.8 2.5 2.6 2.6-2.6-2.6-2.5-2.5 2.5z"/><path d="M387.2 15.3v4.4l4.3-4.4h-4.3z"/><path d="M387.3 15.3V11l-4.3 4.5h4.3zM401.7 29h-29V0h29v29zM375 26.7h24.4V2.3H375v24.4zM354.7 7a1.1 1.1 0 1 0-2.2 0 1.1 1.1 0 1 0 2.2 0zm-.8 16.3a1.1 1.1 0 0 0-1-1c-.7 0-1.2.4-1.2 1a1.1 1.1 0 0 0 1.1 1.1c.6 0 1.1-.5 1.1-1zm15.9 0c0-.6-.5-1-1.1-1a1.1 1.1 0 0 0-1.1 1 1.1 1.1 0 0 0 1 1.1c.6 0 1.1-.5 1.2-1zm-.8-16a1.1 1.1 0 0 0-1-1c-.7 0-1.2.4-1.2 1a1.1 1.1 0 0 0 1.1 1.1c.6 0 1.1-.4 1.1-1zm-8 6.7-1 1 1 1.1 1-1-1-1.1z"/><path d="m360.9 16.8-1.8-1.7 1.8-1.8 1.8 1.8-1.8 1.7zm-.4-1.8.4.4.3-.4-.3-.3-.4.3zm2.8-10-1.4 3.7-.8 2.3h3.6v3l2.3-.7 2.8-1v5.1l-2.7-1.2-2.4-1v3.7h-3.5l1 2.4 1.1 2.8h-5l1.2-2.8 1-2.4H357v-3.2l-2.3.8-3.3 1v-5l3.2 1.2 2.4 1V11h3.2l-.7-2.2-1.3-3.8h5.1zm2.5-1.8H356l1.8 6h-2.6v2.9l-5.6-2.2v10l5.7-1.8v2.6h2.6l-2 5.2h10l-.5-1.2-1.6-4h2.7v-2.9l5.1 2.3V10l-5 1.7V9.3h-3l1.8-5 .5-1.1zM375 29h-28.8V0H375v29zm-26.6-2.3h24.4V2.3h-24.4v24.4zm79.8 2.3h-28.9V0h28.9v29zm-26.7-2.3H426V2.3h-24.4v24.4zm36-23.5v22.7h6V3.2h-6zm4 20.6h-2V5.3h2v18.5z"/><path d="M429.7 11.4v6.3H451v-6.3h-21.3zm19.2 4.2h-17.1v-2h17.1v2z"/><path d="M433.7 7.7v13.8h13.5V7.7h-13.5zM445 19.4h-9.3V9.8h9.3v9.6zm85.6-8.8V18h-3.3v3h-3v3.4H517v-3.3h-3v-3h-3.4v-7.7h3.4v-3h3V4.2h7.4v3.3h3v3h3.3zm-1.7 5.8v-4h-3.3V9.2h-3V5.9h-4v3.4h-3v3h-3.3v4h3.3v3h3v3.5h4v-3.4h3v-3h3.3zm-8.3-.1c1 0 2-1 2-2s-1-2-2-2-2 .9-2 2 .9 2 2 2z"/><path d="M523 14.3c0 .4-.2.9-.4 1.3s-.6.6-1 .8a2.3 2.3 0 0 1-1.4.1 2.3 2.3 0 0 1-1.2-.6c-.3-.3-.5-.7-.6-1.2a2.3 2.3 0 0 1 .1-1.3 2.3 2.3 0 0 1 .9-1 2.3 2.3 0 0 1 2.9.3c.4.4.7 1 .7 1.6zm-4 0 .3.9a1.6 1.6 0 0 0 .7.6 1.6 1.6 0 0 0 1.8-.3 1.6 1.6 0 0 0 .5-.9l-.1-1a1.6 1.6 0 0 0-.6-.7 1.6 1.6 0 0 0-1-.3 1.6 1.6 0 0 0-1 .5 1.6 1.6 0 0 0-.6 1.2zm10.3 11a1.1 1.1 0 1 0 0-2.3 1.1 1.1 0 0 0 0 2.3zM530 6a1.1 1.1 0 1 0 0-2.2 1.1 1.1 0 0 0 0 2.2zm-19.2.4c.6 0 1-.5 1-1.1s-.4-1.2-1-1.2-1.1.5-1.1 1.2.5 1 1 1zm0 18.5c.6 0 1.1-.5 1.1-1.1s-.5-1.2-1-1.2-1.2.5-1.2 1.2.5 1 1.1 1z"/><use xlink:href="#y"/><path d="M498 7.2h-8.8v-4h8.8v4zm-7.2-1.6h5.6v-.8h-5.6v.8z"/><path d="M490 6.4h3.6V4H490v2.3zm8 19.7h-8.8v-3.9h8.8v4zm-7.2-1.5h5.6v-.8h-5.6v.8z"/><path d="M497.2 23h-3.6v2.3h3.6V23z"/><path d="M498 23.8h-8.8v-2.4h-2.1v-2.2h-2.4v-8.8h2.4V8.2h2.1V5.8h8.8v2.4h2.2v2.2h2.3v8.9h-2.3v2H498v2.5zm-7.2-1.6h5.7v-2.4h2.1v-2.2h2.4V12h-2.4V9.8h-2.1V7.4h-5.7v2.4h-2.1v2.1h-2.4v5.7h2.4v2.2h2.1v2.4z"/><path d="M505 19.2h-3.8v-8.8h3.9v8.8zm-2.2-1.6h.7V12h-.7v5.7z"/><path d="M504.3 18.4v-3.6H502v3.6h2.3zm-18.1.8h-3.9v-8.8h3.9v8.8zm-2.3-1.6h.7V12h-.7v5.7z"/><path d="M483.1 11.1v3.7h2.3V11H483zm10.6 9-4.8-4.8 4.8-4.8 4.8 4.8-4.8 4.8zm-2.5-4.8 2.5 2.6 2.6-2.6-2.6-2.5-2.5 2.5z"/><path d="M493.7 15.3v4.4l4.3-4.4h-4.3z"/><path d="M493.7 15.3V11l-4.3 4.5h4.3zM508.1 29h-28.8V0H508v29zm-26.6-2.3H506V2.3h-24.4v24.4z"/><use xlink:href="#z"/><path d="M460.4 23.3a1.1 1.1 0 0 0-1.1-1c-.6 0-1.1.4-1.1 1s.5 1.1 1 1.1 1.2-.5 1.2-1z"/><use xlink:href="#A"/><path d="M475.5 7.4a1.1 1.1 0 0 0-1.1-1.2c-.6 0-1 .5-1.1 1.1s.5 1.1 1 1.1 1.2-.4 1.2-1zm-8.1 6.6-1.1 1 1 1.1 1.1-1-1-1.1z"/><path d="m467.4 16.8-1.8-1.8 1.8-1.8 1.8 1.8-1.8 1.8zM467 15l.4.4.3-.4-.3-.3-.4.3zm2.8-10-1.4 3.7-.8 2.3h3.6v3l2.3-.7 2.8-1v5.1l-2.7-1.2-2.4-1v3.7h-3.5l1 2.4 1 2.8H465l1-2.8 1-2.4h-3.5v-3.2l-2.2.8-3.4 1v-5l3.3 1.2 2.3 1V11h3.2l-.7-2.2-1.2-3.8h5zm2.5-1.8h-10l1.9 6h-2.6v2.9L456 9.9v10l5.6-1.8v2.6h2.7l-2 5.2h10l-.5-1.2-1.6-4h2.7v-2.9l5.2 2.3V10l-5.1 1.7V9.3h-3l1.8-5 .5-1.1h-.1zm9.2 25.8h-28.9V0h29v29zM455 26.7h24.4V2.3H455v24.4zm79.7 2.3h-28.8V0h28.8v29zM508 26.7h24.4V2.3H508v24.4zm36-23.5v22.7h6.2V3.2H544zm4 20.6h-2V5.3h2v18.5z"/><path d="M536.2 11.4v6.3h21.3v-6.3h-21.3zm19.2 4.2h-17.2v-2h17.2v2z"/><use xlink:href="#B"/><path d="M637.2 10.6V18H634v3h-3v3.4h-7.4v-3.3h-3v-3H617v-7.7h3.3v-3h3V4.2h7.5v3.3h3v3h3.3zm-1.8 5.8v-4h-3.3V9.2h-3V5.9h-4v3.4h-2.9v3h-3.3v4h3.3v3h3v3.5h3.9v-3.4h3v-3h3.3zm-8.3-.1c1.1 0 2-1 2-2s-.9-2-2-2-2 .9-2 2 1 2 2 2z"/><path d="M629.4 14.3c0 .4 0 .9-.3 1.3a2.3 2.3 0 0 1-1 .8 2.3 2.3 0 0 1-1.4.1 2.3 2.3 0 0 1-1.2-.6 2.3 2.3 0 0 1-.6-1.2c-.1-.4 0-.9.1-1.3a2.3 2.3 0 0 1 .9-1 2.3 2.3 0 0 1 2.9.3c.4.4.6 1 .6 1.6zm-3.9 0a1.6 1.6 0 0 0 .3.9 1.6 1.6 0 0 0 .7.6 1.6 1.6 0 0 0 1 .1c.3 0 .6-.2.8-.4a1.6 1.6 0 0 0 .4-.9 1.6 1.6 0 0 0 0-1 1.6 1.6 0 0 0-.7-.7 1.6 1.6 0 0 0-.9-.3 1.6 1.6 0 0 0-1.1.5 1.6 1.6 0 0 0-.5 1.2zm10.3 11a1.1 1.1 0 1 0 0-2.3 1.1 1.1 0 0 0 0 2.3zm.6-19.3a1.1 1.1 0 1 0 0-2.2 1.1 1.1 0 0 0 0 2.2zm-19.2.4a1.1 1.1 0 1 0 0-2.3 1.1 1.1 0 0 0 0 2.3zm0 18.5a1.1 1.1 0 1 0 0-2.3 1.1 1.1 0 0 0 0 2.3zm-56 4.1h-28.8V0h28.9v29zm-26.6-2.3H559V2.3h-24.4v24.4zm69.9-19.5h-8.8v-4h8.8v4zm-7.2-1.6h5.6v-.8h-5.6v.8z"/><path d="M596.5 6.4h3.6V4h-3.6v2.3zm8 19.7h-8.8v-3.9h8.8v4zm-7.2-1.5h5.6v-.8h-5.6v.8z"/><path d="M603.7 23h-3.6v2.3h3.6V23z"/><path d="M604.5 23.8h-8.8v-2.4h-2.1v-2.2h-2.4v-8.8h2.4V8.2h2.1V5.8h8.8v2.4h2.2v2.2h2.3v8.9h-2.3v2h-2.2v2.5zm-7.2-1.6h5.6v-2.4h2.2v-2.2h2.3V12h-2.3V9.8h-2.2V7.4h-5.6v2.4H595v2.1h-2.3v5.7h2.3v2.2h2.2v2.4z"/><path d="M611.6 19.2h-4v-8.8h4v8.8zm-2.3-1.6h.7V12h-.7v5.7z"/><path d="M610.8 18.4v-3.6h-2.3v3.6h2.3zm-18.1.8h-3.9v-8.8h3.9v8.8zm-2.3-1.6h.7V12h-.7v5.7z"/><path d="M589.6 11.1v3.7h2.3V11h-2.3zm10.6 9-4.8-4.8 4.8-4.8 4.7 4.8-4.7 4.8zm-2.6-4.8 2.6 2.6 2.5-2.6-2.5-2.5-2.6 2.5z"/><path d="M600.2 15.3v4.4l4.3-4.4h-4.3z"/><path d="M600.2 15.3V11l-4.3 4.5h4.3zM614.6 29h-28.9V0h29v29zM588 26.7h24.4V2.3H588v24.4zM567.8 7a1.1 1.1 0 1 0-2.2 0c0 .6.5 1 1.1 1.1s1.1-.5 1.1-1zm-1 16.3c0-.6-.4-1-1-1s-1.1.4-1.1 1 .5 1.1 1 1.1 1.2-.5 1.2-1zm16 0a1.1 1.1 0 1 0-2.3 0 1.1 1.1 0 0 0 2.2 0zm-1.1-16a1.1 1.1 0 1 0-2.2 0 1.1 1.1 0 0 0 2.2 0zm-7.9 6.7-1 1 1 1.1 1.1-1-1-1.1z"/><path d="M573.9 16.8 572 15l1.7-1.8 1.9 1.9-1.8 1.7zm-.4-1.8.4.4.3-.4-.4-.3-.3.3zm2.8-10-1.4 3.7-.8 2.3h3.6v3l2.2-.7 2.9-1v5.1l-2.7-1.2-2.4-1v3.7H574l1 2.4 1.1 2.8h-5l1.2-2.8 1-2.4h-3.5v-3.2l-2.3.8-3.4 1v-5l3.3 1.2 2.4 1V11h3.2l-.7-2.2-1.2-3.8h5zm2.5-1.8h-10l1.9 6H568v2.9l-5.6-2.2v10l5.6-1.8v2.6h2.7l-2 5.2h10l-.4-1.2-1.6-4h2.7v-2.9l5 2.3V10l-5 1.7V9.3h-3l1.9-5 .4-1.1zM588 29h-29V0h29v29zm-26.6-2.3h24.4V2.3h-24.4v24.4zM641 29h-28.8V0H641v29zm-26.6-2.3H639V2.3h-24.4v24.4zm35.9-23.5v22.7h6.1V3.2h-6.1zm4 20.6h-2V5.3h2v18.5z"/><path d="M642.7 11.4v6.3H664v-6.3h-21.3zm19.2 4.2h-17.2v-2H662v2z"/><path d="M646.7 7.7v13.8H660V7.7h-13.4zM658 19.4h-9.4V9.8h9.4v9.6zm85.6-8.8V18h-3.3v3h-3v3.4h-7.5v-3.3h-3v-3h-3.4v-7.7h3.4v-3h3V4.2h7.4v3.3h3v3h3.4zm-1.8 5.8v-4h-3.3V9.2h-3V5.9h-4v3.4h-3v3h-3.3v4h3.4v3h3v3.5h4v-3.4h3v-3h3.2zm-8.3-.1c1.1 0 2-1 2-2s-.9-2-2-2-2 .9-2 2 1 2 2 2z"/><path d="M736 14.3a2.3 2.3 0 0 1-.5 1.3 2.3 2.3 0 0 1-1 .8 2.3 2.3 0 0 1-2.5-.5c-.3-.3-.5-.7-.6-1.2a2.3 2.3 0 0 1 .1-1.3c.2-.4.5-.8.9-1a2.3 2.3 0 0 1 1.2-.4 2.3 2.3 0 0 1 1.6.7c.5.4.7 1 .7 1.6zm-4 0c0 .3 0 .6.3.9l.7.6a1.6 1.6 0 0 0 1 .1 1.6 1.6 0 0 0 .8-.4 1.6 1.6 0 0 0 .4-.9v-1a1.6 1.6 0 0 0-.7-.7 1.6 1.6 0 0 0-2 .2c-.3.3-.5.7-.5 1.2zm10.3 11a1.1 1.1 0 1 0 0-2.3 1.1 1.1 0 0 0 0 2.3zm.5-19.3a1.1 1.1 0 1 0 0-2.2 1.1 1.1 0 0 0 0 2.2zm-19.2.4a1.1 1.1 0 1 0 0-2.3 1.1 1.1 0 0 0 0 2.3zm0 18.5a1.1 1.1 0 1 0 0-2.3 1.1 1.1 0 0 0 0 2.3zM667.8 29H639V0h28.8v29zm-26.6-2.3h24.4V2.3H641v24.4zM711 7.2h-8.8v-4h8.8v4zm-7.3-1.6h5.7v-.8h-5.7v.8z"/><path d="M703 6.4h3.6V4H703v2.3zm8 19.7h-8.8v-3.9h8.8v4zm-7.3-1.5h5.7v-.8h-5.7v.8z"/><path d="M710.2 23h-3.6v2.3h3.6V23z"/><path d="M711 23.8h-8.8v-2.4H700v-2.2h-2.4v-8.8h2.4V8.2h2V5.8h8.9v2.4h2.2v2.2h2.3v8.9h-2.3v2H711v2.5zm-7.2-1.6h5.6v-2.4h2.2v-2.2h2.3V12h-2.3V9.8h-2.2V7.4h-5.6v2.4h-2.2v2.1h-2.3v5.7h2.3v2.2h2.2v2.4z"/><path d="M718 19.2h-3.8v-8.8h3.8v8.8zm-2.3-1.6h.8V12h-.8v5.7z"/><path d="M717.3 18.4v-3.6H715v3.6h2.3zm-18.2.8h-3.8v-8.8h3.8v8.8zm-2.3-1.6h.8V12h-.8v5.7z"/><path d="M696 11.2v3.6h2.4v-3.6H696zm10.7 9-4.8-4.9 4.7-4.8 4.8 4.8-4.7 4.8zm-2.6-4.9 2.6 2.6 2.5-2.6-2.5-2.5-2.6 2.5z"/><path d="M706.7 15.3v4.4l4.3-4.4h-4.3zm0 0V11l-4.3 4.5h4.3z"/><use xlink:href="#C"/><path d="M674.3 7a1.1 1.1 0 0 0-1.1-1.1c-.6 0-1.1.5-1.1 1a1.1 1.1 0 0 0 1 1.2c.7 0 1.2-.5 1.2-1zm-1 16.3c0-.6-.4-1-1-1s-1.1.4-1.1 1 .4 1.1 1 1.1 1.1-.5 1.1-1zm15.9 0a1.1 1.1 0 0 0-1.1-1.1 1.1 1.1 0 0 0-1.1 1 1.1 1.1 0 0 0 1 1.2c.7 0 1.2-.5 1.2-1zm-.8-16a1.1 1.1 0 1 0-2.1 0 1.1 1.1 0 0 0 1 1.1c.6 0 1.1-.4 1.1-1zm-8 6.7-1.1 1 1 1.1 1.1-1-1-1.1z"/><path d="m680.3 16.8-1.8-1.8 1.8-1.8 1.8 1.9-1.8 1.7zM680 15l.3.4.4-.4-.4-.3-.3.3zm2.7-10-1.3 3.7-.8 2.3h3.5v3l2.3-.7 2.8-1v5.1l-2.7-1.2-2.4-1v3.7h-3.5l1 2.4 1.1 2.8h-5l1.2-2.8 1-2.4h-3.5v-3.2l-2.3.8-3.3 1v-5l3.2 1.2 2.4 1V11h3.2l-.7-2.2-1.3-3.8h5.1zm2.6-1.8h-10l2 6h-2.7v2.9L669 9.9v10l5.6-1.8v2.6h2.7l-2 5.2h10l-.5-1.2-1.6-4h2.7v-2.9l5.1 2.3V10l-5 1.7V9.3h-3l1.8-5 .5-1.1zm9.2 25.8h-28.9V0h28.9v29zm-26.7-2.3h24.4V2.3h-24.4v24.4zm79.8 2.3h-28.9V0h28.9v29zM721 26.7h24.4V2.3H721v24.4zm35.9-23.5v22.7h6V3.2h-6zm4 20.6h-2V5.3h2v18.5z"/><path d="M749.2 11.4v6.3h21.3v-6.3h-21.3zm19.2 4.2h-17.1v-2h17.1v2z"/><path d="M753.1 7.7v13.8h13.5V7.7h-13.5zm11.4 11.7h-9.3V9.8h9.3v9.6zm85.7-8.8V18h-3.3v3h-3.1v3.4h-7.4v-3.3h-3v-3H830v-7.7h3.3v-3h3V4.2h7.5v3.3h3v3h3.4zm-1.8 5.8v-4h-3.3V9.2h-3V5.9h-4v3.4h-3v3h-3.4v4h3.4v3h3v3.5h3.9v-3.4h3v-3h3.4zm-8.3-.1a2 2 0 0 0 0-4 2 2 0 0 0 0 4z"/><path d="M842.4 14.3c0 .4-.1.9-.4 1.3a2.3 2.3 0 0 1-1 .8 2.3 2.3 0 0 1-2.5-.5 2.3 2.3 0 0 1-.5-2.5 2.3 2.3 0 0 1 .8-1 2.3 2.3 0 0 1 1.3-.4 2 2 0 0 1 1.6.7 2.3 2.3 0 0 1 .7 1.6zm-4 0a1.6 1.6 0 0 0 .1.6c.1.3.2.5.4.6a1.6 1.6 0 0 0 .5.4 1.6 1.6 0 0 0 1.3 0 1.6 1.6 0 0 0 .6-.4 1.6 1.6 0 0 0 .3-.6 1.7 1.7 0 0 0 .1-.6 1.6 1.6 0 0 0-.5-1.1c-.3-.3-.7-.4-1.1-.4a1.6 1.6 0 0 0-1.1.4 1.6 1.6 0 0 0-.5 1zm10.4 11c.6 0 1.1-.5 1.1-1.2s-.5-1-1.1-1-1.1.4-1.1 1 .5 1.2 1 1.2zm.5-19.3a1.1 1.1 0 1 0 0-2.2 1.1 1.1 0 0 0 0 2.2zm-19.2.4a1.1 1.1 0 1 0 0-2.3 1.1 1.1 0 0 0 0 2.3zm0 18.5a1.1 1.1 0 1 0 0-2.3 1.1 1.1 0 0 0 0 2.3zM774.3 29h-28.8V0h28.8v29zm-26.6-2.3H772V2.3h-24.4v24.4zm69.9-19.5h-8.8v-4h8.8v4zm-7.3-1.6h5.7v-.8h-5.7v.8z"/><path d="M809.4 6.4h3.7V4h-3.7v2.3zm8 19.7h-8.7v-3.9h8.8v4zm-7.2-1.5h5.7v-.8h-5.7v.8z"/><path d="M816.7 23H813v2.3h3.6V23z"/><path d="M817.5 23.8h-8.8v-2.4h-2.2v-2.2h-2.3v-8.8h2.3V8.2h2.2V5.8h8.8v2.4h2.1v2.2h2.4v8.9h-2.4v2h-2.1v2.5zm-7.2-1.6h5.7v-2.4h2.1v-2.1h2.3v-5.8h-2.3V9.8H816V7.4h-5.6v2.4h-2.1v2.1h-2.4v5.7h2.4v2.2h2v2.4z"/><path d="M824.5 19.2h-3.9v-8.8h4v8.8zm-2.3-1.6h.7V12h-.7v5.7z"/><path d="M823.7 18.4v-3.6h-2.3v3.6h2.3zm-18 .8h-4v-8.8h4v8.8zm-2.4-1.6h.8V12h-.8v5.7z"/><path d="M802.5 11.1v3.7h2.3V11h-2.3zm10.6 9-4.7-4.8 4.7-4.8 4.8 4.8-4.8 4.8zm-2.5-4.8L813 18l2.6-2.6-2.6-2.5-2.5 2.5z"/><path d="M813.1 15.3v4.4l4.4-4.4H813z"/><path d="M813.2 15.3V11l-4.3 4.5h4.3zM827.6 29h-28.9V0h28.9v29zM801 26.7h24.3V2.3H801v24.4zM780.8 7a1.1 1.1 0 0 0-1.1-1.1c-.6 0-1.1.5-1.1 1a1.1 1.1 0 0 0 1 1.2c.7 0 1.2-.5 1.2-1.1zm-1.3 16.3a1.1 1.1 0 1 0-2.2 0 1.1 1.1 0 0 0 2.2 0zm16.2 0a1.1 1.1 0 0 0-1.1-1 1.1 1.1 0 0 0 0 2.1 1.1 1.1 0 0 0 1-1zm-.8-16a1.1 1.1 0 1 0-2.2 0 1.1 1.1 0 0 0 2.2 0zm-8 6.7-1.2 1 1.1 1.1 1-1-1-1.1z"/><path d="M786.8 16.8 785 15l1.8-1.8 1.8 1.9-1.8 1.7zm-.3-1.8.3.4.4-.4-.4-.3-.3.3zm2.7-10L788 8.7l-1 2.3h3.6v3l2.3-.7 2.8-1v5.1l-2.6-1.2-2.5-1v3.7h-3.5l1 2.4 1.1 2.8h-4.9l1.1-2.8 1-2.4H783v-3.2l-2.2.8-3.4 1v-5l3.3 1.2 2.3 1V11h3.2l-.7-2.2-1.3-3.8h5.1zm2.5-1.8h-9.9l1.9 6H781v2.9l-5.7-2.2v10l5.7-1.8v2.6h2.7l-2.1 5.2h10l-.4-1.2-1.6-4h2.7v-2.9l5 2.3V10l-5 1.7V9.3h-3l1.9-5 .4-1.1zM801 29h-29V0h29v29zm-26.7-2.3h24.4V2.3h-24.4v24.4zm79.8 2.3h-28.9V0h28.9v29zm-26.6-2.3h24.3V2.3h-24.3v24.4zm35.8-23.5v22.7h6.1V3.2h-6zm4 20.6h-1.9V5.3h2v18.5z"/><path d="M855.6 11.4v6.3H877v-6.3h-21.3zm19.3 4.2h-17.2v-2H875v2z"/><path d="M859.6 7.7v13.8H873V7.7h-13.5zM871 19.4h-9.3V9.8h9.3v9.6zm85.7-8.8V18h-3.4v3h-3v3.4h-7.4v-3.3h-3v-3h-3.4v-7.7h3.3v-3h3V4.2h7.5v3.3h3v3h3.4zm-1.8 5.8v-4h-3.3V9.2h-3V5.9h-4v3.4h-3v3h-3.4v4h3.4v3h3v3.5h4v-3.4h3v-3h3.3zm-8.3-.1c1 0 2-1 2-2s-1-2-2-2-2 .9-2 2 1 2 2 2z"/><path d="M948.9 14.3c0 .4-.2.9-.4 1.3a2.3 2.3 0 0 1-1 .8 2.3 2.3 0 0 1-1.4.1 2.3 2.3 0 0 1-1.1-.6 2.3 2.3 0 0 1-.7-1.2c0-.4 0-.9.2-1.3a2.3 2.3 0 0 1 .8-1 2.3 2.3 0 0 1 1.3-.4 2 2 0 0 1 1.6.7 2.3 2.3 0 0 1 .7 1.6zm-4 0 .3.9.7.6a1.6 1.6 0 0 0 1.8-.3c.3-.3.4-.6.5-.9s0-.6-.1-1a1.6 1.6 0 0 0-.6-.7 1.6 1.6 0 0 0-1-.3 1.6 1.6 0 0 0-1 .5 1.6 1.6 0 0 0-.5 1.2zm10.4 11c.6 0 1-.5 1-1.2s-.4-1-1-1-1.2.4-1.2 1 .5 1.2 1.2 1.2zm.5-19.3a1.1 1.1 0 1 0 0-2.2 1.1 1.1 0 0 0 0 2.2zm-19.2.4c.6 0 1.1-.5 1.1-1.1s-.5-1.2-1.1-1.2-1.1.5-1.1 1.2.5 1 1 1zm0 18.5a1.1 1.1 0 1 0 0-2.3 1.1 1.1 0 0 0 0 2.3zM880.7 29h-28.9V0h28.9v29zm-26.6-2.3h24.4V2.3H854v24.4zm69.8-19.5h-8.8v-4h8.8v4zm-7.1-1.6h5.6v-.8h-5.6v.8z"/><path d="M916 6.4h3.5V4H916v2.3zm8 19.7h-9v-3.9h8.8v4zm-7.2-1.5h5.6v-.8h-5.6v.8z"/><path d="M923.1 23h-3.6v2.3h3.6V23z"/><path d="M924 23.8h-8.8v-2.4H913v-2.2h-2.4v-8.8h2.4V8.2h2.2V5.8h8.8v2.4h2.1v2.2h2.3v8.9h-2.3v2H924v2.5zm-7.2-1.6h5.6v-2.4h2.2v-2.1h2.3v-5.8h-2.4V9.8h-2.1V7.4h-5.6v2.4h-2.2v2.1h-2.4v5.7h2.4v2.2h2.1v2.4z"/><path d="M931 19.2h-4v-8.8h3.9v8.8zm-2.3-1.6h.7V12h-.7v5.7z"/><path d="M930.2 18.4v-3.6H928v3.6h2.3zm-18 .8h-4v-8.8h4v8.8zm-2.3-1.6h.7V12h-.7v5.7z"/><path d="M909 11.1v3.7h2.3V11H909zm10.6 9-4.8-4.8 4.8-4.8 4.8 4.8-4.8 4.8zm-2.5-4.8 2.5 2.6 2.6-2.6-2.6-2.5-2.5 2.5z"/><path d="M919.6 15.3v4.4l4.3-4.4h-4.3z"/><path d="M919.7 15.3V11l-4.4 4.5h4.4zM934 29h-28.8V0H934v29zm-26.6-2.3h24.4V2.3h-24.4v24.4zM886.8 7a1.1 1.1 0 1 0-2.2 0 1.1 1.1 0 0 0 2.2 0zm-1 16.3a1.1 1.1 0 1 0-2.1 0 1.1 1.1 0 0 0 2.2 0zm16.3 0a1.1 1.1 0 0 0-1-1c-.6-.1-1.1.4-1.1 1s.4 1.1 1 1.1 1.1-.5 1.1-1zm-.7-16a1.1 1.1 0 0 0-1-1c-.7 0-1.2.4-1.2 1a1.1 1.1 0 0 0 1.1 1.1c.6 0 1.1-.4 1.1-1zm-8.1 6.7-1 1 1 1.1 1-1-1-1.1z"/><path d="m893.3 16.8-1.8-1.8 1.8-1.8 1.8 1.9-1.8 1.7zm-.4-1.8.4.4.3-.4-.3-.3-.4.3zm2.8-10-1.4 3.7-.8 2.3h3.6v3l2.3-.7 2.8-1v5.1l-2.7-1.2-2.4-1v3.7h-3.5l1 2.4 1.1 2.8h-5l1.2-2.8 1-2.4h-3.5v-3.2l-2.3.8-3.3 1v-5l3.2 1.2 2.4 1V11h3.2l-.7-2.2-1.3-3.8h5zm2.5-1.8h-9.9l1.8 6h-2.5v2.9l-5.7-2.2v10l5.7-1.8v2.6h2.6l-2 5.2h10l-.5-1.2-1.6-4h2.7v-2.9l5.1 2.3V10l-5 1.7V9.3h-3l1.8-5 .5-1.1zm9.2 25.8h-28.8V0h28.8v29zm-26.6-2.3h24.4V2.3h-24.4v24.4zm79.8 2.3h-29V0h29v29zm-26.7-2.3h24.4V2.3H934v24.4zm35.9-23.5v22.7h6.1V3.2h-6.1zm4 20.6h-2V5.3h2v18.5z"/><path d="M962.1 11.4v6.3h21.3v-6.3h-21.3zm19.2 4.2h-17.1v-2h17.1v2z"/><path d="M966 7.7v13.8h13.5V7.7H966zm11.5 11.7H968V9.8h9.4v9.6zm85.6-8.8V18h-3.3v3h-3v3.4h-7.5v-3.3h-3v-3h-3.3v-7.7h3.3v-3h3V4.2h7.4v3.3h3v3h3.4zm-1.7 5.8v-4h-3.4V9.2h-3V5.9h-4v3.4h-3v3h-3.3v4h3.4v3h3v3.5h4v-3.4h3v-3h3.3z"/><use xlink:href="#D"/><path d="M1055.4 14.3a2.3 2.3 0 0 1-.4 1.3 2.3 2.3 0 0 1-1 .8 2.3 2.3 0 0 1-3.2-1.7 2.3 2.3 0 0 1 .1-1.3c.2-.4.5-.8.9-1a2.3 2.3 0 0 1 1.3-.4 2 2 0 0 1 1.6.7 2.3 2.3 0 0 1 .7 1.6zm-4 0a1.7 1.7 0 0 0 .3.9 1.7 1.7 0 0 0 .7.6 1.6 1.6 0 0 0 1.8-.3c.2-.3.4-.6.4-.9v-1a1.6 1.6 0 0 0-.6-.7 1.6 1.6 0 0 0-1-.3c-.4 0-.8.2-1 .5s-.6.8-.6 1.2z"/><use xlink:href="#E"/><use xlink:href="#F"/><path d="M1043 6.4a1.1 1.1 0 0 0 1.2-1.1A1.1 1.1 0 0 0 1043 4c-.6 0-1.1.5-1.1 1.2s.5 1 1 1zm.1 18.5a1.1 1.1 0 0 0 1.1-1.1 1.1 1.1 0 0 0-1-1.2c-.7 0-1.2.5-1.2 1.2s.5 1 1.1 1zm-56 4.1h-28.8V0h28.9v29zm-26.5-2.3h24.3V2.3h-24.3v24.4zm69.8-19.5h-8.8v-4h8.8v4zm-7.2-1.6h5.7v-.8h-5.7v.8z"/><path d="M1022.4 6.4h3.6V4h-3.6v2.3zm8 19.7h-8.8v-3.9h8.8v4zm-7.2-1.5h5.7v-.8h-5.7v.8z"/><path d="M1029.6 23h-3.6v2.3h3.6V23z"/><path d="M1030.4 23.8h-8.8v-2.4h-2.1v-2.2h-2.4v-8.8h2.4V8.2h2.1V5.8h8.8v2.4h2.2v2.2h2.3v8.9h-2.3v2h-2.2v2.5zm-7.2-1.6h5.7v-2.4h2.1v-2.1h2.4v-5.8h-2.4V9.8h-2.1V7.4h-5.7v2.4h-2.1v2.1h-2.4v5.7h2.4v2.2h2.1v2.4z"/><path d="M1037.5 19.2h-3.9v-8.8h3.9v8.8zm-2.3-1.6h.7V12h-.7v5.7z"/><path d="M1036.7 18.4v-3.6h-2.3v3.6h2.3zm-18.1.8h-3.9v-8.8h3.9v8.8zm-2.3-1.6h.7V12h-.7v5.7z"/><path d="M1015.5 11.1v3.7h2.3V11h-2.3z"/><use xlink:href="#G"/><path d="M1026.1 15.3v4.4l4.3-4.4h-4.3z"/><path d="M1026.1 15.3V11l-4.3 4.5h4.3zm14.4 13.7h-28.8V0h28.8v29zm-26.6-2.3h24.4V2.3h-24.4v24.4zM993.7 7c0-.6-.5-1.1-1-1.1s-1.2.5-1.2 1 .5 1.2 1.1 1.2 1.1-.5 1.1-1.1zm-1 16.3c0-.6-.4-1-1-1s-1.1.4-1.1 1 .5 1.1 1 1.1 1.2-.5 1.2-1zm16 0a1 1 0 0 0-2.3 0 1 1 0 0 0 2.2 0zm-.8-16c0-.5-.5-1-1.1-1a1.1 1.1 0 0 0-1.1 1c0 .6.5 1.1 1 1.2a1.1 1.1 0 0 0 1.2-1.1zm-8.1 6.7-1.1 1 1 1.1 1.1-1-1-1.1z"/><path d="M999.8 16.8 998 15l1.8-1.8 1.7 1.9-1.7 1.7zm-.4-1.8.4.4.3-.4-.3-.3-.4.3zm2.8-10-1.4 3.7-.8 2.3h3.6v3l2.3-.7 2.8-1v5.1l-2.7-1.2-2.4-1v3.7h-3.5l1 2.4 1 2.8h-4.8l1-2.8 1-2.4h-3.5v-3.2l-2.2.8-3.4 1v-5l3.3 1.2 2.3 1V11h3.2l-.7-2.2-1.2-3.8h5zm2.5-1.8h-9.9l1.8 6H994v2.9l-5.6-2.2v10l5.6-1.8v2.6h2.7l-2 5.2h10l-.5-1.2-1.6-4h2.7v-2.9l5.1 2.3V10l-5.1 1.7V9.3h-2.9l1.8-5 .5-1.1zm9.2 25.8H985V0h29v29zm-26.6-2.3h24.4V2.3h-24.4v24.4zM1067 29h-28.8V0h28.8v29zm-26.6-2.3h24.4V2.3h-24.4v24.4zm35.9-23.5v22.7h6.1V3.2h-6.1zm4 20.6h-1.9V5.3h2v18.5z"/><path d="M1068.6 11.4v6.3h21.3v-6.3h-21.3zm19.2 4.2h-17.2v-2h17.2v2z"/><path d="M1072.5 7.7v13.8h13.5V7.7h-13.5zm11.4 11.7h-9.3V9.8h9.3v9.6zm85.7-8.8V18h-3.3v3h-3v3.4h-7.5v-3.3h-3v-3h-3.3v-7.7h3.3v-3h3V4.2h7.5v3.3h3v3h3.3zm-1.8 5.8v-4h-3.3V9.2h-3V5.9h-4v3.4h-3v3h-3.3v4h3.4v3h3v3.5h4v-3.4h3v-3h3.2zm-8.3-.1a2 2 0 0 0 0-4 2 2 0 0 0 0 4z"/><path d="M1161.8 14.3a2.3 2.3 0 0 1-.4 1.3 2.3 2.3 0 0 1-1 .8 2.3 2.3 0 0 1-2.5-.5 2.3 2.3 0 0 1-.6-1.2 2.3 2.3 0 0 1 .1-1.3 2.3 2.3 0 0 1 .9-1 2.3 2.3 0 0 1 1.3-.4 2.3 2.3 0 0 1 1.6.7 2.3 2.3 0 0 1 .6 1.6zm-4 0c0 .3.2.6.4.9a1.6 1.6 0 0 0 .7.6 1.6 1.6 0 0 0 1.8-.3c.2-.3.4-.6.4-.9v-1a1.6 1.6 0 0 0-.7-.7 1.6 1.6 0 0 0-.9-.3 1.6 1.6 0 0 0-1.1.5c-.3.3-.5.8-.5 1.2zm10.4 11c.6 0 1.1-.5 1.1-1.2s-.5-1-1-1a1.1 1.1 0 0 0-1.2 1 1.1 1.1 0 0 0 1.1 1.2zm.5-19.3c.7 0 1.2-.5 1.2-1s-.5-1.2-1.2-1.2a1.1 1.1 0 0 0-1 1.1 1.1 1.1 0 0 0 1 1.1zm-19.2.4c.7 0 1.2-.5 1.2-1.1s-.5-1.2-1.2-1.2a1.1 1.1 0 0 0-1 1.2 1.1 1.1 0 0 0 1 1zm0 18.5a1.1 1.1 0 0 0 1.2-1.1 1.1 1.1 0 0 0-1.1-1.2c-.6 0-1.1.5-1.1 1.2s.5 1 1 1zm-55.8 4.1h-29V0h29v29zm-26.7-2.3h24.4V2.3H1067v24.4zm70-19.5h-8.8v-4h8.8v4zm-7.2-1.6h5.6v-.8h-5.6v.8z"/><path d="M1128.9 6.4h3.6V4h-3.6v2.3zm8 19.7h-8.8v-3.9h8.8v4zm-7.2-1.5h5.6v-.8h-5.6v.8z"/><path d="M1136.1 23h-3.6v2.3h3.6V23z"/><path d="M1137 23.8h-8.9v-2.4h-2.1v-2.2h-2.4v-8.8h2.4V8.2h2.1V5.8h8.8v2.4h2.2v2.2h2.3v8.9h-2.3v2h-2.2v2.5zm-7.3-1.6h5.6v-2.4h2.2v-2.1h2.3v-5.8h-2.3V9.8h-2.2V7.4h-5.6v2.4h-2.2v2.1h-2.3v5.7h2.3v2.2h2.2v2.4z"/><path d="M1144 19.2h-4v-8.8h4v8.8zm-2.3-1.6h.7V12h-.7v5.7z"/><path d="M1143.2 18.4v-3.6h-2.3v3.6h2.3zm-18.1.8h-3.9v-8.8h3.9v8.8zm-2.3-1.6h.7V12h-.7v5.7z"/><path d="M1122 11.1v3.7h2.3V11h-2.3zm10.6 9-4.7-4.8 4.7-4.8 4.8 4.8-4.8 4.8zm-2.5-4.8 2.5 2.6 2.6-2.6-2.6-2.5-2.5 2.5z"/><path d="M1132.6 15.3v4.4l4.3-4.4h-4.3z"/><path d="M1132.6 15.3V11l-4.3 4.5h4.3zM1147 29h-28.9V0h28.9v29zm-26.6-2.3h24.4V2.3h-24.4v24.4zM1100.2 7a1 1 0 0 0-2.2 0 1 1 0 0 0 2.2 0zm-1.5 16.3a1 1 0 0 0-1-1.2 1.1 1.1 0 0 0-1.1 1.1c0 .6.4 1.1 1 1.1s1.1-.4 1.1-1zm16.4 0c0-.6-.5-1-1-1.1a1 1 0 0 0-1.2 1 1.1 1.1 0 1 0 2.2.1zm-.7-16c0-.5-.5-1-1.1-1a1.1 1.1 0 0 0-1.1 1c0 .6.5 1.1 1 1.1a1.1 1.1 0 0 0 1.2-1zm-8.2 6.7-1 1 1 1.1 1.1-1-1-1.1z"/><path d="m1106.3 16.8-1.8-1.8 1.7-1.8 1.8 1.8-1.8 1.8zm-.4-1.8.4.4.3-.4-.4-.3-.3.3zm2.8-10-1.4 3.7-.8 2.3h3.6v3l2.2-.7 2.9-1v5.1l-2.7-1.2-2.4-1v3.7h-3.5l1 2.4 1 2.8h-4.8l1-2.8 1-2.4h-3.5v-3.2l-2.2.8-3.4 1v-5l3.3 1.2 2.3 1V11h3.2l-.7-2.2-1.2-3.8h5zm2.5-1.8h-9.9l1.8 6h-2.6v2.9l-5.6-2.2v10l5.6-1.8v2.6h2.7l-2 5.2h10l-.5-1.2-1.6-4h2.7v-2.9l5.1 2.3V10l-5 1.7V9.3h-3l1.9-5 .4-1.1zm9.2 25.8h-28.9V0h28.9v29zm-26.6-2.3h24.3V2.3h-24.3v24.4zm79.7 2.3h-28.8V0h28.8v29zm-26.6-2.3h24.4V2.3h-24.4v24.4zm35.9-23.5v22.7h6.1V3.2h-6.1zm4 20.6h-2V5.3h2v18.5z"/><path d="M1175 11.4v6.3h21.3v-6.3H1175zm19.2 4.2h-17.1v-2h17.1v2z"/><path d="M1179 7.7v13.8h13.5V7.7H1179zm11.4 11.7h-9.3V9.8h9.3v9.6zm85.7-8.8V18h-3.3v3h-3v3.4h-7.5v-3.3h-3v-3h-3.3v-7.7h3.3v-3h3V4.2h7.4v3.3h3v3h3.4zm-1.8 5.8v-4h-3.3V9.2h-3V5.9h-4v3.4h-3v3h-3.3v4h3.3v3h3v3.5h4v-3.4h3v-3h3.3zm-8.3-.1a2 2 0 0 0 2-2 2 2 0 0 0-2-2 2 2 0 0 0 0 4z"/><path d="M1268.3 14.3c0 .4-.1.9-.4 1.3a2.3 2.3 0 0 1-2.3 1 2.3 2.3 0 0 1-1.2-.7 2.3 2.3 0 0 1-.6-1.2 2.3 2.3 0 0 1 .1-1.3c.2-.4.5-.8.8-1a2.3 2.3 0 0 1 1.3-.4 2.3 2.3 0 0 1 1.6.6c.5.5.7 1 .7 1.7zm-4 0 .3.9a1.6 1.6 0 0 0 1.7.7 1.7 1.7 0 0 0 .9-.4 1.7 1.7 0 0 0 .4-.9v-1a1.6 1.6 0 0 0-.7-.7 1.6 1.6 0 0 0-.9-.3c-.4 0-.8.2-1.1.5a1.6 1.6 0 0 0-.5 1.2zm10.4 11c.6 0 1.1-.5 1.1-1.2s-.5-1-1-1a1.1 1.1 0 0 0-1.2 1 1.1 1.1 0 0 0 1.1 1.2zm.5-19.3c.6 0 1.1-.5 1.1-1s-.5-1.2-1-1.2a1.1 1.1 0 0 0-1.2 1.1 1.1 1.1 0 0 0 1.1 1.1zm-19.2.4c.6 0 1.1-.5 1.1-1.1s-.5-1.2-1-1.2a1.1 1.1 0 0 0-1.2 1.2 1.1 1.1 0 0 0 1.1 1zm0 18.5c.7 0 1.2-.5 1.2-1.1s-.5-1.2-1.1-1.2a1.1 1.1 0 0 0-1.1 1.2 1.1 1.1 0 0 0 1 1zm-55.9 4.1h-28.8V0h28.8v29zm-26.6-2.3h24.4V2.3h-24.4v24.4zm69.9-19.5h-8.8v-4h8.8v4zm-7.3-1.6h5.7v-.8h-5.7v.8z"/><path d="M1235.4 6.4h3.6V4h-3.6v2.3zm8 19.7h-8.8v-3.9h8.8v4zm-7.3-1.5h5.7v-.8h-5.7v.8z"/><path d="M1242.6 23h-3.6v2.3h3.6V23z"/><path d="M1243.4 23.8h-8.8v-2.4h-2.1v-2.2h-2.4v-8.8h2.4V8.2h2V5.8h8.9v2.4h2.2v2.2h2.3v8.9h-2.3v2h-2.2v2.5zm-7.3-1.6h5.7v-2.4h2.2v-2.1h2.4v-5.8h-2.4V9.8h-2.1V7.4h-5.8v2.4h-2.1v2.1h-2.4v5.7h2.4v2.2h2.1v2.4z"/><path d="M1250.4 19.2h-3.8v-8.8h3.8v8.8zm-2.3-1.6h.8V12h-.8v5.7z"/><path d="M1249.7 18.4v-3.6h-2.3v3.6h2.3zm-18.2.8h-3.8v-8.8h3.8v8.8zm-2.3-1.6h.8V12h-.8v5.7z"/><path d="M1228.5 11.2v3.6h2.3v-3.6h-2.3zm10.6 9-4.8-4.9 4.8-4.8 4.8 4.8-4.8 4.8zm-2.6-4.9 2.6 2.6 2.5-2.6-2.5-2.5-2.6 2.5z"/><path d="M1239 15.3v4.4l4.4-4.4h-4.3z"/><path d="M1239.1 15.3V11l-4.3 4.5h4.3zm14.4 13.7h-28.9V0h28.9v29zm-26.6-2.3h24.4V2.3h-24.4v24.4zM1206 7c0-.6-.5-1-1-1a1.1 1.1 0 0 0-.1 2.1 1.1 1.1 0 0 0 1.1-1zm-.4 16.4c0-.6-.5-1-1-1a1.1 1.1 0 0 0-1.2 1c0 .6.5 1.1 1.1 1.1a1.1 1.1 0 0 0 1.1-1zm15.9 0c0-.6-.5-1-1.1-1a1.1 1.1 0 0 0-1.1 1c0 .6.5 1.1 1 1.1a1.1 1.1 0 0 0 1.2-1zm-.8-16a1.1 1.1 0 1 0-2.2 0c0 .6.5 1.1 1.1 1.1a1 1 0 0 0 1.1-1zm-8 6.7-1.1 1 1 1.1 1.1-1-1-1.1z"/><path d="M1212.7 16.8 1211 15l1.8-1.8 1.8 1.8-1.8 1.8zm-.3-1.8.3.4.4-.4-.4-.3-.3.3zm2.7-10-1.3 3.7-.8 2.3h3.6v3l2.2-.7 2.9-1v5.1l-2.7-1.2-2.4-1v3.7h-3.6l1 2.4 1.2 2.8h-5l1.1-2.8 1-2.4h-3.5v-3.2l-2.2.8-3.4 1v-5l3.3 1.2 2.3 1V11h3.2l-.7-2.2L1210 5h5.1zm2.6-1.8h-10l1.8 6h-2.5v2.9l-5.6-2.2v10l5.6-1.8v2.6h2.7l-2 5.2h10l-.5-1.2-1.6-4h2.7v-2.9l5.1 2.3V10l-5.1 1.7V9.3h-2.9l1.8-5 .5-1.1zm9.2 25.8H1198V0h28.9v29zm-26.7-2.3h24.4V2.3h-24.3v24.4zM1280 29h-28.9V0h28.9v29zm-26.6-2.3h24.4V2.3h-24.4v24.4z"/></g><defs><path id="b" d="M103.4 25.3a1.1 1.1 0 1 0 0-2.3 1.1 1.1 0 0 0 0 2.3z"/><path id="c" d="M104 6c.6 0 1-.5 1-1s-.4-1.2-1-1.2-1.2.5-1.2 1.1.5 1.1 1.2 1.1z"/><path id="d" d="M64 6.4h3.7V4h-3.6v2.3z"/><path id="e" d="M60.3 19.2h-3.9v-8.8h3.9v8.8zM58 17.6h.7V12H58v5.7z"/><path id="f" d="M67.8 15.3V11l-4.3 4.5h4.3z"/><path id="g" d="M35.4 7c0-.6-.5-1-1-1.1s-1.2.5-1.2 1 .5 1.2 1.1 1.2 1.1-.5 1.1-1z"/><path id="h" d="M118 3.2v22.7h6.1V3.2H118zm4 20.6h-2V5.3h2v18.5z"/><path id="i" d="M201.2 16.3c1.1 0 2-1 2-2s-.9-2-2-2-2 .9-2 2 1 2 2 2z"/><path id="j" d="M210.4 6a1.1 1.1 0 1 0 0-2.2 1.1 1.1 0 0 0 0 2.2z"/><path id="k" d="M191.3 24.9c.6 0 1-.5 1-1.1s-.4-1.2-1-1.2-1.1.5-1.1 1.2.5 1 1 1z"/><path id="l" d="M177.8 23h-3.6v2.3h3.6V23z"/><path id="m" d="M141.9 7c0-.6-.5-1.1-1-1.1s-1.2.5-1.2 1 .5 1.2 1 1.2 1.2-.5 1.2-1z"/><path id="n" d="M140.9 23.3a1.1 1.1 0 1 0-2.2 0 1.1 1.1 0 0 0 2.2 0z"/><path id="o" d="M156 7.4a1.1 1.1 0 1 0-2.1 0c0 .5.4 1 1 1s1.1-.4 1.2-1z"/><path id="p" d="m148 16.8-2-1.8 1.8-1.8 1.8 1.8-1.8 1.8zm-.4-1.8.3.4.4-.4-.4-.3-.3.3z"/><path id="q" d="M310 14.3a2.3 2.3 0 0 1-2.7 2.2 2.3 2.3 0 0 1-1.9-1.8 2.3 2.3 0 0 1 .2-1.3 2.3 2.3 0 0 1 .8-1 2.3 2.3 0 0 1 3 .3c.4.4.6 1 .6 1.6zm-4 0 .3.9.8.6a1.6 1.6 0 0 0 1.7-.3c.3-.3.4-.6.5-.9v-1a1.6 1.6 0 0 0-.7-.7 1.6 1.6 0 0 0-1-.3 1.6 1.6 0 0 0-1 .5 1.6 1.6 0 0 0-.5 1.2z"/><path id="r" d="M316.4 25.3c.6 0 1.1-.5 1.1-1.2s-.5-1-1.1-1-1.1.4-1.1 1 .5 1.2 1 1.2z"/><path id="s" d="M291.3 18.4v-3.6H289v3.6h2.3z"/><path id="t" d="M247.4 23.3a1.1 1.1 0 1 0-2.2 0 1.1 1.1 0 0 0 2.2 0z"/><path id="u" d="M268.5 29h-28.8V0h28.8v29zM242 26.7h24.4V2.3H242v24.4z"/><path id="v" d="M321.7 29h-28.9V0h28.9v29zM295 26.7h24.3V2.3H295v24.4z"/><path id="w" d="M348.3 29h-28.9V0h29v29zm-26.6-2.3H346V2.3h-24.4v24.4z"/><path id="x" d="M379.7 19.2h-3.9v-8.8h3.9v8.8zm-2.3-1.6h.7V12h-.7v5.7z"/><path id="y" d="M454.8 29h-28.9V0h28.9v29zm-26.6-2.3h24.3V2.3h-24.3v24.4z"/><path id="z" d="M461.3 7c0-.6-.4-1-1-1.1s-1.2.5-1.2 1 .5 1.2 1.1 1.2 1.1-.5 1.1-1z"/><path id="A" d="M476.2 23.3c0-.6-.5-1-1-1s-1.2.4-1.2 1 .5 1.1 1.1 1.1 1.1-.5 1.1-1z"/><path id="B" d="M540.2 7.7v13.8h13.5V7.7h-13.5zm11.4 11.7h-9.3V9.8h9.3v9.6z"/><path id="C" d="M721 29h-28.8V0h28.9v29zm-26.5-2.3h24.3V2.3h-24.3v24.4z"/><path id="D" d="M1053 16.3a2 2 0 0 0 0-4 2 2 0 0 0 0 4z"/><path id="E" d="M1061.7 25.3a1.1 1.1 0 0 0 1.2-1.2 1.1 1.1 0 0 0-1.2-1c-.6 0-1 .4-1 1s.4 1.2 1 1.2z"/><path id="F" d="M1062.3 6c.6 0 1-.5 1-1s-.4-1.2-1-1.2a1.1 1.1 0 0 0-1.1 1.1 1.1 1.1 0 0 0 1 1.1z"/><path id="G" d="m1026.1 20.1-4.8-4.8 4.8-4.8 4.8 4.8-4.8 4.8zm-2.5-4.8 2.5 2.6 2.5-2.6-2.5-2.5-2.5 2.5z"/><clipPath id="a"><path fill="#fff" d="M0 0h1280v29H0z"/></clipPath></defs></svg>