<svg xmlns="http://www.w3.org/2000/svg" width="181" height="48" fill="none" xmlns:v="https://vecta.io/nano"><g clip-path="url(#A)" fill="#bf0909"><path d="M72.21 18.16a7.37 7.37 0 0 0-5.8-2.64c-4.64 0-8.86 3.68-8.86 9.5s4.21 9.53 8.86 9.53a7.47 7.47 0 0 0 5.8-2.67v.5c0 4.7-2.06 6.51-5.31 6.51a5.1 5.1 0 0 1-4.59-2.86l-4.23 1.82a9.57 9.57 0 0 0 8.8 5.54c6.4 0 10.38-3.68 10.38-11.58V16.03h-5.05v2.13zm-4.83 11.67a4.77 4.77 0 0 1-4.68-4.8 4.7 4.7 0 0 1 4.68-4.76 4.78 4.78 0 1 1 0 9.56zm23.61-14.29a9.52 9.52 0 0 0-6.45 16.329 9.52 9.52 0 0 0 14.593-1.564c1.034-1.565 1.582-3.4 1.577-5.276a9.47 9.47 0 0 0-9.72-9.49zm0 14.29a4.78 4.78 0 0 1-3.658-8.086 4.78 4.78 0 0 1 8.228 3.326 4.57 4.57 0 0 1-4.57 4.76zm24.6-14.28a7.18 7.18 0 0 0-3.209.641c-1.006.458-1.893 1.142-2.591 1.999v-12h-5.07v27.93h5.07v-2.25a7.15 7.15 0 0 0 5.8 2.72c4.64 0 8.87-3.73 8.87-9.53s-4.25-9.51-8.87-9.51zm-1 14.28a4.78 4.78 0 1 1 0-9.56 4.67 4.67 0 0 1 3.302 1.417 4.66 4.66 0 0 1 .993 1.54c.226.574.337 1.187.325 1.803a4.73 4.73 0 0 1-4.61 4.8h-.01zm16.2-1.62a3.12 3.12 0 1 0 0 6.24 3.12 3.12 0 1 0 0-6.24zm18.6-12.67a7.27 7.27 0 0 0-3.209.664c-1.005.463-1.891 1.149-2.591 2.006v-2.18h-5.07v27h5.07V31.85c.69.872 1.573 1.572 2.579 2.044s2.11.704 3.221.676c4.64 0 8.87-3.69 8.87-9.53s-4.21-9.49-8.87-9.5zm-1 14.29a4.78 4.78 0 1 1 0-9.56 4.78 4.78 0 1 1 0 9.56zm31.82-5.08a9.05 9.05 0 0 0-.671-3.601 9.04 9.04 0 0 0-5.125-5.021 9.05 9.05 0 0 0-3.614-.597 9.31 9.31 0 0 0-6.834 2.692c-.897.889-1.604 1.951-2.078 3.121a9.31 9.31 0 0 0-.678 3.688c0 5.58 4.06 9.5 9.65 9.5a10.11 10.11 0 0 0 4.415-.901 10.1 10.1 0 0 0 3.585-2.729l-2.95-3c-.595.659-1.319 1.188-2.128 1.555a6.46 6.46 0 0 1-2.572.575 4.43 4.43 0 0 1-4.65-3.37h13.6a16.91 16.91 0 0 0 .05-1.91zm-13.71-1.34a4.2 4.2 0 0 1 4.42-3.48c2.28 0 4 1.36 4.18 3.48h-8.6zM21.52 41.03v-.09-.09a.93.93 0 0 0-1-.11c.005.073.005.147 0 .22a1.28 1.28 0 0 1-.59 1.3 1.12 1.12 0 0 0 1 .56 1 1 0 0 0 .9-.49 1.32 1.32 0 0 1-.31-1.3zm-5.18-1.48a1.1 1.1 0 0 0 .75-.41 1.23 1.23 0 0 0 .25-.8 1.35 1.35 0 0 0-.19-.6 1.81 1.81 0 0 1 .32.45 1.62 1.62 0 0 1 .11.49l.11.07a1.09 1.09 0 0 0 .76.12 1.16 1.16 0 0 0 .61-.37 1.33 1.33 0 0 1-.23-.7 1.36 1.36 0 0 1 .13-.7h-.2a7.77 7.77 0 0 0-1.77.37 11.65 11.65 0 0 0-2 .83c-.015.12-.015.241 0 .36a1.18 1.18 0 0 0 1.08.92h.21l.06-.03z"/><path d="M24.96 39.23a1.24 1.24 0 0 0-.87.42 1.26 1.26 0 0 0-.22.66 2.19 2.19 0 0 0 .17.82 2.18 2.18 0 0 1-.33-.62 1.14 1.14 0 0 1 .2-1.1 1.2 1.2 0 0 1 .78-.49 1.19 1.19 0 0 0-1.08-.87 1.54 1.54 0 0 1-.57 1.52 1.46 1.46 0 0 1-.75.25 1.38 1.38 0 0 1-.9-.28c.069-.133.082-.287.037-.43s-.145-.261-.277-.33-.287-.082-.43-.037-.261.145-.33.277a2.09 2.09 0 0 1-.5 0 1.62 1.62 0 0 1-.58-.25 1.35 1.35 0 0 1-.79.46h-.21a1.37 1.37 0 0 1-.77-.17c-.038.096-.089.187-.15.27a1.5 1.5 0 0 1-1.08.56v.34a1.08 1.08 0 0 0 .44.73 1.12 1.12 0 0 0 .59.2h.06.13.1a1.53 1.53 0 0 0 .32-.13 1 1 0 0 1-.32.13 1.08 1.08 0 0 0 .33-.13l.11-.08a1.21 1.21 0 0 0 .21-.24 1.12 1.12 0 0 0 .15-.75c.006-.04.006-.08 0-.12a1.06 1.06 0 0 0-.14-.29 1.32 1.32 0 0 1 .25.32l.06.09v-.15a.86.86 0 0 1 0 .18.94.94 0 0 1 0 .93 1.14 1.14 0 0 1-.45.42 1.08 1.08 0 0 0 .61.83 1.23 1.23 0 0 0 1-.07 1.08 1.08 0 0 0 .53-.95 1.25 1.25 0 0 0-.75-1.08 1.1 1.1 0 0 1 .79.47 1.41 1.41 0 0 1 1.42.09 1.34 1.34 0 0 1 1.64-.26 1.69 1.69 0 0 0-.38 0 1.1 1.1 0 0 0-1.15.82 1.2 1.2 0 0 0 .25 1h.05a1.21 1.21 0 0 0 1 .27 1.23 1.23 0 0 0 .9-.91v-.16l.13.09a1.21 1.21 0 0 0 .91.15 1.19 1.19 0 0 0 .9-1.42 1.2 1.2 0 0 0-1.04-.98z"/><path d="M21.29 39.2a1.34 1.34 0 0 0 .37.21 1.26 1.26 0 0 0 1.18-.12 1.2 1.2 0 0 0 .37-1.26h-.07a8.67 8.67 0 0 0-3.59-.91h-.21a1.09 1.09 0 0 0-.19.7 1.06 1.06 0 0 0 .84 1 1.09 1.09 0 0 0 1.23-.53 1.43 1.43 0 0 1-.24.48c.003.02.003.04 0 .06a.34.34 0 0 0 0 .11.84.84 0 0 0 .31.26zm10.8-6.36a2 2 0 0 0-1.26-1.27 1.5 1.5 0 0 0-1.37-.21 1.21 1.21 0 0 0-1.08.63.94.94 0 0 0-.2.2 1.54 1.54 0 0 0 .51 1.82 1 1 0 0 0 .78 0l.34-.18-.19-.33a1.28 1.28 0 0 1-.13-.39.82.82 0 0 1 0-.14.33.33 0 0 1 .15-.11.73.73 0 0 1 .43.05 1.23 1.23 0 0 0 .28.49 1.9 1.9 0 0 0-.17.7.9.9 0 0 0-.48.48 2.08 2.08 0 0 0-.2.08 1.44 1.44 0 0 1-.61 0h-.08a2.14 2.14 0 0 1-.76-.27l-3.84-2.29a6.27 6.27 0 0 0-3.19-.81 5.28 5.28 0 0 0-3.18 1.24l-.27.25-.9.19-.25.06-.08 1a7.51 7.51 0 0 0-.82.38l-.16.09-.11.07v.21c-.009.177-.009.354 0 .53l.39-.16h.1l.22-.08.23-.07a7.52 7.52 0 0 1 4.39-.06 6.13 6.13 0 0 1 2.26 1.33l.29.25c-.824-.556-1.723-.99-2.67-1.29a7.25 7.25 0 0 0-4 .11l-.5.18-.13.05a8.86 8.86 0 0 0-1 .47v.17a10.11 10.11 0 0 0 .2 1.46v.11c-.002.03-.002.06 0 .09h.08a13.73 13.73 0 0 1 2.39-.89l1.25-.24h.17.79.31.09a11.61 11.61 0 0 1 2.77.66l.16.07.22.08.16.07.22-.39a15.51 15.51 0 0 0 4.44 1.21 4.81 4.81 0 0 0 .73 0 3.9 3.9 0 0 0 1.34-.25 3.09 3.09 0 0 0 2.13-2 2.49 2.49 0 0 0 .32-2 2 2 0 0 0-.51-1.35zm-2.82 3.88a1.81 1.81 0 0 1-.38 1 4 4 0 0 0-.07-1.6c-.071-.299-.179-.587-.32-.86l.68.11a2.21 2.21 0 0 1 .09 1.35zm2.06-2.31a2 2 0 0 0-.44-.14 1.89 1.89 0 0 1 0-.37 1.1 1.1 0 0 1 .67.33 2.16 2.16 0 0 1 .38.63 2.6 2.6 0 0 0-.61-.45zM15.44 6.38a3.8 3.8 0 0 1 1.34 1.29 2.9 2.9 0 0 0-.75.11 2.44 2.44 0 0 0 1.47.68l.2.15-.58.09a2 2 0 0 0 1.65.61l.32.16-.32.17a2.67 2.67 0 0 0 1.28.2l1.38.43s1.43.2 1.72.82a1.74 1.74 0 0 1 1.13-.82l1.73-.43a2.92 2.92 0 0 0 1.1-.21l-.22-.15a3.24 3.24 0 0 0 .36-.2 2.67 2.67 0 0 0 1.62-.64 4.49 4.49 0 0 0-.61-.09l.14-.13a2.41 2.41 0 0 0 1.44-.78 2.31 2.31 0 0 0-.73-.08l.12-.18a1.78 1.78 0 0 0 1.16-1c-.31 0-.58.08-.8.13a1.36 1.36 0 0 0 .06-.29 1.47 1.47 0 0 0 .56-1.19l-.55.26c0-.16-.06-.31-.09-.46a1.39 1.39 0 0 0 0-1.09l-.36.29-.25-.37a1.63 1.63 0 0 0-.35-1.25 1.59 1.59 0 0 0-.41.47l-.37-.28c0-.39-.37-.77-1-1.17-.043.187-.063.378-.06.57-.122-.064-.249-.117-.38-.16a1.5 1.5 0 0 0-1.18-.81 2.93 2.93 0 0 0 .09.48l-.52-.11a1.8 1.8 0 0 0-1.5-.43c.051.1.107.197.17.29a5.09 5.09 0 0 0-.55 0h-.44l.15-.3a1.94 1.94 0 0 0-1.47.44l-.51.11a1.15 1.15 0 0 0 0-.49c-.64.24-1 .49-1.16.84-.13 0-.27.1-.39.16v-.51a1.8 1.8 0 0 0-1 1.08c-.146.095-.286.199-.42.31-.103-.148-.224-.282-.36-.4a1.6 1.6 0 0 0-.38 1.13l-.23.32a3.35 3.35 0 0 0-.42-.26 1.31 1.31 0 0 0 .05 1 2.81 2.81 0 0 0-.12.48 4.85 4.85 0 0 0-.49-.14 1.78 1.78 0 0 0 .45.91c0 .14 0 .28.06.42a3.17 3.17 0 0 0-.78.02zm7.5-2.65c2.06 0 3.45 1.18 3.46 2 0 .69-.79 1.16-2.23 1.54a2.06 2.06 0 0 0-1.13.74 1.64 1.64 0 0 0-1.06-.61c-1.56-.34-2.58-.93-2.58-1.64s1.48-2.02 3.54-2.03z"/><path d="M42.39 5.83l-10.4 6.08-.46.26a11.23 11.23 0 0 1-3.22 1.09 6.28 6.28 0 0 1-4.68-1.27l-.48-.42-.46.44a6.36 6.36 0 0 1-4.47 1.31 7.79 7.79 0 0 1-3-.88L3.86 5.87v8.88L.01 12.58.08 33.14a21.93 21.93 0 0 0 .72 5.28 12.58 12.58 0 0 0 3.13 5.26 10.91 10.91 0 0 0 3.56 2.43 11.89 11.89 0 0 0 3.72.92h1a28.19 28.19 0 0 0 5.6-.73l2-.35a4.9 4.9 0 0 1 3 1 .65.65 0 0 0 .35.1h.09a.71.71 0 0 0 .32-.12 6 6 0 0 1 1.21-.69c1.54-.62 2.91-.28 4.64.16l.91.23a23.74 23.74 0 0 0 3.9.39 14.51 14.51 0 0 0 2.35-.19 11.13 11.13 0 0 0 6-3.4 11.92 11.92 0 0 0 3-4.71 19.4 19.4 0 0 0 .63-4.69v-.32-21.07l-3.87 2.21.05-9.02zm-1.37 6.41v3.36l-3.28 2-1.23-1.22-.68-.71 5.19-3.43zm-13.59 2.51a7.2 7.2 0 0 0 1.1-.09 12.25 12.25 0 0 0 3.21-1l5 5a10.28 10.28 0 0 0-2.34 4.33 2.85 2.85 0 0 0-.87.38l-.36.24.28.33a2 2 0 0 0 .72.52 5.75 5.75 0 0 0 0 .83 17.26 17.26 0 0 0 .5 3.36 26.6 26.6 0 0 0-4.8-.45h-.08v-2.68c.08-.45.55-.51.65-.53v-.39.39l-.06-.77a1.49 1.49 0 0 0-.58.17v-.56c.12-.51 1.16-.59 1.17-.59v-.78c-.39.039-.772.14-1.13.3v-.9s0-.09.08-.15a2 2 0 0 0 1.72-.49 2.2 2.2 0 0 0 .66-1.26l.05-.38-.38-.06a2.3 2.3 0 0 0-1.72.57c-.286.26-.541.552-.76.87a3 3 0 0 0-1.15-1 2.75 2.75 0 0 0-1.26-.33h-.43l.07.43a2.14 2.14 0 0 0 1.21 1.63 1.75 1.75 0 0 0 1.08 0v.17.91a3.16 3.16 0 0 0-1.14-.3v.78a2.98 2.98 0 0 1 .62.12c.32.12.5.27.55.47v.56a1.69 1.69 0 0 0-.59-.16l-.06.77a.7.7 0 0 1 .65.55v2.7a24.88 24.88 0 0 0-5.17.6v-4.18a2.86 2.86 0 0 0 .46.06 2.42 2.42 0 0 0 1.26-.52l.35-.27-.31-.31a2.2 2.2 0 0 0-1.41-.58 1.58 1.58 0 0 0-.38.05v-9.28a7.86 7.86 0 0 0 3.59.92zm-9.26 0h.4a8.29 8.29 0 0 0 3.88-.9v14.91a22.82 22.82 0 0 0-3.15-.5c0-.44-.13-1.57-.13-1.57l.13-1.07.39-1.24a2.84 2.84 0 0 0 .74-.58 1.27 1.27 0 0 0 .37-.77l.17-1.44-.2-3.66 1.14-.14.22-.32v-.35l-1.52-1.09-.79.26a1.31 1.31 0 0 0-1.43.19 1.06 1.06 0 0 0 .49.54 2 2 0 0 0 .84.17v.27 3.31l-1.56.11-4-.18-1.35 1.33-.17.48a1.8 1.8 0 0 0 .05 1.35l.69-.75.28 1.33-.38 1.82.27.72.5 1.3a22.59 22.59 0 0 0-2.57.43c.2-.722.351-1.457.45-2.2a10.67 10.67 0 0 0-.39-5.27 9.68 9.68 0 0 0-1.33-2.21c-.122-.211-.255-.414-.4-.61l.31-.33 4.39-4.46a9.23 9.23 0 0 0 3.7 1.11l-.04.01zm.41 13.47h-.21c0-.66-.14-2.18-.14-2.18l.07-.18.15-.84v.92.31l.13 1.97zm-.84-.05h-1.79l-.46-1.63a3.7 3.7 0 0 1 .06-.89l.73-1.22.59.22.55-.1-.05 1.61.37 2.01zm-2.48 0h-.58l-.58-2 .67-1.77-.08 2a17.02 17.02 0 0 1 .57 1.79v-.02zm-10-15.84l5.33 3.27-1.84 1.88-3.5-1.95.01-3.2zm2.87 23l-5.39-3.17a3 3 0 0 1-1.27-2.34 3.53 3.53 0 0 0 0-.43v-6.56c.92.51 7.31 4.08 8.82 5.19a40.68 40.68 0 0 1-1.57 4.88 9.09 9.09 0 0 0-.63 2.44l.04-.01zm27.1 5.57c-1.87 1.61-3.71 2.57-7.53 2.73a6.33 6.33 0 0 0-4.53 1.67 6.38 6.38 0 0 0-4.62-1.67 11.35 11.35 0 0 1-5.41-1.37 5.15 5.15 0 0 1-1.55-1.25v-.05a7.28 7.28 0 0 1-1.41-2.15 6.79 6.79 0 0 1-.11-5.36c.48-1.27.84-2.35 1.12-3.25h24a33.65 33.65 0 0 0 1.25 3.27 10 10 0 0 1 .56 2.78 5.46 5.46 0 0 1-1.79 4.66l.02-.01zm9.68-18.07v7.05a2.8 2.8 0 0 1-1.32 2.32l-.27.16-.18.08-4.93 2.82a11.79 11.79 0 0 0-.57-2.36 28.18 28.18 0 0 1-1.67-4.87l8.94-5.2zM24.4 21.15l-.35.14.12.36a2.08 2.08 0 0 0 1.34 1.19 2 2 0 0 0 .54.07 3.55 3.55 0 0 0 1.28-.29l.4-.2-.27-.41a2.25 2.25 0 0 0-1.33-1 3 3 0 0 0-1.73.14z"/><path d="M32.71 21.14a2.82 2.82 0 0 0-1.29 1l-.26.35.38.21a2.56 2.56 0 0 0 1.16.28 1.92 1.92 0 0 0 .62-.08 2.16 2.16 0 0 0 1.2-1.09l.17-.35-.4-.18a2 2 0 0 0-1.58-.14zm-3.32-.84l.28-.24a2.18 2.18 0 0 0 .68-1.58 2 2 0 0 0-.169-.809c-.112-.255-.276-.483-.481-.671l-.29-.25-.2.28v.05a2 2 0 0 0-.6 1.42 2.36 2.36 0 0 0 .62 1.53l.16.27zm3.38.32c.139.017.281.017.42 0a1.7 1.7 0 0 0 .88-.23 1.57 1.57 0 0 0 .67-1l.07-.39-.41-.08a1.52 1.52 0 0 0-1.14.18 1.85 1.85 0 0 0-.75.93l-.16.41.42.18zm-7.86-.18a1.26 1.26 0 0 0 .54.12 2.06 2.06 0 0 0 .67-.14l.35-.16-.18-.38a1.53 1.53 0 0 0-.81-.83 1.91 1.91 0 0 0-1.19-.06l-.43.1.16.41a1.81 1.81 0 0 0 .89.94z"/><path d="M31.21 19.1a1.28 1.28 0 0 0 .85-.33 1.11 1.11 0 0 0 .34-.81v-.38h-.41a1.17 1.17 0 0 0-.78.3 1.35 1.35 0 0 0-.38.76l-.08.44h.43l.03.02zm-3.56-.07l.38.06.06-.41a1.05 1.05 0 0 0-.16-.75 1.25 1.25 0 0 0-.62-.45l-.42-.15-.1.43a1.12 1.12 0 0 0 .16.84 1 1 0 0 0 .7.43zm-1.39 5a1.73 1.73 0 0 0-.77 1.12l-.08.38.38.07c.14.017.281.017.42 0a1.8 1.8 0 0 0 1.78-1.32l.12-.39-.38-.1a2.06 2.06 0 0 0-1.47.24zm4.78-.08l-.3.22.2.31a2.12 2.12 0 0 0 1 .81 1.51 1.51 0 0 0 .42.05 2.65 2.65 0 0 0 1-.19l.39-.15-.18-.37a1.71 1.71 0 0 0-2.539-.68h.01z"/></g><defs><clipPath id="A"><path fill="#fff" transform="translate(0 .96)" d="M0 0h180.21v46.08H0z"/></clipPath></defs></svg>